<svg width="375" height="405" viewBox="0 0 375 405" fill="none" xmlns="http://www.w3.org/2000/svg">
<path d="M456 202.463C456.12 278.008 426.969 350.636 374.716 404.982L307.953 337.936C294.938 324.91 278.478 315.903 260.522 311.982C242.566 308.061 223.868 309.392 206.642 315.815C177.337 326.673 144.976 325.659 116.402 312.989C87.8273 300.318 65.2803 276.985 53.5282 247.922L0 221.487L44.8639 199.09C45.406 179.934 50.4801 161.182 59.6668 144.385C68.8535 127.588 81.8891 113.228 97.696 102.491C113.503 91.7542 131.627 84.9494 150.572 82.6388C169.516 80.3283 188.735 82.5784 206.642 89.2032C223.866 95.636 242.567 96.9711 260.525 93.05C278.483 89.129 294.943 80.1165 307.953 67.0822L374.808 0C426.97 54.3758 456.078 126.961 456 202.463V202.463Z" fill="#EBECF4"/>
</svg>
