<svg width="25" height="24" viewBox="0 0 25 24" fill="none" xmlns="http://www.w3.org/2000/svg">
<path d="M12.524 0.333008C19.1507 0.333008 24.1673 5.76616 24.1673 11.9821C24.1673 19.1913 18.2873 23.6663 12.5007 23.6663C10.5873 23.6663 8.46398 23.1522 6.76065 22.1474C6.16565 21.7852 5.66398 21.5165 5.02232 21.7268L2.66565 22.4278C2.07065 22.6148 1.53398 22.1474 1.70898 21.5165L2.49065 18.8992C2.61898 18.537 2.59565 18.1514 2.40898 17.8476C1.40565 16.0015 0.833984 13.9801 0.833984 12.0172C0.833984 5.87132 5.74565 0.333008 12.524 0.333008ZM17.8557 10.5333C17.0273 10.5333 16.3623 11.1993 16.3623 12.0289C16.3623 12.8468 17.0273 13.5245 17.8557 13.5245C18.684 13.5245 19.349 12.8468 19.349 12.0289C19.349 11.1993 18.684 10.5333 17.8557 10.5333ZM12.4773 10.5333C11.6607 10.5216 10.984 11.1993 10.984 12.0172C10.984 12.8468 11.649 13.5128 12.4773 13.5245C13.3057 13.5245 13.9707 12.8468 13.9707 12.0289C13.9707 11.1993 13.3057 10.5333 12.4773 10.5333ZM7.09898 10.5333C6.27065 10.5333 5.60565 11.1993 5.60565 12.0289C5.60565 12.8468 6.28232 13.5245 7.09898 13.5245C7.92732 13.5128 8.59232 12.8468 8.59232 12.0289C8.59232 11.1993 7.92732 10.5333 7.09898 10.5333Z" fill="#DADBE7"/>
</svg>
