<svg width="25" height="24" viewBox="0 0 25 24" fill="none" xmlns="http://www.w3.org/2000/svg">
<path d="M8.13101 0C8.62561 0 9.01423 0.393064 9.01423 0.867052C9.01423 1.21387 9.30864 1.49133 9.66192 1.49133H10.8278C12.606 1.50289 14.0545 2.92486 14.0662 4.65896V4.87861C15.185 4.87861 16.3037 4.90173 17.4342 4.91329C21.5206 4.91329 24.5 7.82659 24.5 11.8497V17.0173C24.5 21.0405 21.5206 23.9538 17.4342 23.9538C15.7974 23.9884 14.1605 24 12.5118 24C10.8631 24 9.20265 23.9884 7.56575 23.9538C3.47939 23.9538 0.5 21.0405 0.5 17.0173V11.8497C0.5 7.82659 3.47939 4.91329 7.57753 4.91329C9.12022 4.89017 10.6982 4.86705 12.2998 4.86705V4.67052C12.2998 3.87283 11.6286 3.22543 10.8278 3.22543H9.66192C8.33121 3.22543 7.24779 2.16185 7.24779 0.867052C7.24779 0.393064 7.64818 0 8.13101 0ZM9.00245 11.4798C8.50785 11.4798 8.11923 11.8728 8.11923 12.3468V13.5607H6.87095C6.38813 13.5607 5.98773 13.9538 5.98773 14.4277C5.98773 14.9133 6.38813 15.2948 6.87095 15.2948H8.11923V16.5202C8.11923 16.9942 8.50785 17.3873 9.00245 17.3873C9.48528 17.3873 9.88567 16.9942 9.88567 16.5202V15.2948H11.1222C11.605 15.2948 12.0054 14.9133 12.0054 14.4277C12.0054 13.9538 11.605 13.5607 11.1222 13.5607H9.88567V12.3468C9.88567 11.8728 9.48528 11.4798 9.00245 11.4798ZM18.2586 15.5838H18.1408C17.645 15.5838 17.2576 15.9769 17.2576 16.4509C17.2576 16.9364 17.645 17.3179 18.1408 17.3179H18.2586C18.7414 17.3179 19.1418 16.9364 19.1418 16.4509C19.1418 15.9769 18.7414 15.5838 18.2586 15.5838ZM16.2448 11.6069H16.1271C15.6325 11.6069 15.2439 12 15.2439 12.474C15.2439 12.9595 15.6325 13.341 16.1271 13.341H16.2448C16.7277 13.341 17.1281 12.9595 17.1281 12.474C17.1281 12 16.7277 11.6069 16.2448 11.6069Z" fill="#DADBE7"/>
</svg>
