<svg width="171" height="129" viewBox="0 0 171 129" fill="none" xmlns="http://www.w3.org/2000/svg">
<path d="M148.778 88.3598H148.836L85.5 129L22.1552 88.3598H22.2223C15.3898 83.9831 9.78059 78.0136 5.90094 70.99C2.0213 63.9664 -0.00668468 56.1098 1.65537e-05 48.1292C1.65537e-05 35.3667 5.19077 23.127 14.4303 14.1025C23.6699 5.0781 36.2015 0.00823837 49.2682 0.00823837C56.0762 9.86956e-05 62.8117 1.37388 69.0473 4.04253C75.283 6.71117 80.8828 10.6164 85.4916 15.5105C90.1006 10.6139 95.7015 6.70653 101.939 4.03642C108.176 1.36632 114.913 -0.00819658 121.723 3.67703e-05C134.791 3.65854e-05 147.323 5.06963 156.564 14.0938C165.805 23.118 170.998 35.3578 171 48.121C171.004 56.1023 168.975 63.9593 165.096 70.9838C161.217 78.0083 155.609 83.9797 148.778 88.3598Z" fill="#EBECF4"/>
</svg>
