<svg width="23" height="24" viewBox="0 0 23 24" fill="none" xmlns="http://www.w3.org/2000/svg">
<path d="M8.15659 22.2352V18.6679C8.15659 17.7573 8.90022 17.019 9.81752 17.019H13.1707C13.6112 17.019 14.0337 17.1928 14.3452 17.502C14.6567 17.8112 14.8317 18.2306 14.8317 18.6679V22.2352C14.8289 22.6138 14.9784 22.9779 15.2471 23.2466C15.5158 23.5152 15.8814 23.6663 16.2628 23.6663H18.5505C19.6189 23.6691 20.6446 23.2497 21.401 22.5006C22.1575 21.7516 22.5827 20.7345 22.5827 19.6738V9.51101C22.5827 8.65421 22.2001 7.84149 21.5381 7.29179L13.7557 1.12152C12.402 0.0396631 10.4623 0.0745936 9.14897 1.20448L1.5442 7.29179C0.85088 7.82529 0.436493 8.64042 0.416016 9.51101V19.6634C0.416016 21.8742 2.22129 23.6663 4.44822 23.6663H6.68369C7.47578 23.6663 8.11951 23.0319 8.12525 22.2456L8.15659 22.2352Z" fill="#575FCC"/>
</svg>
