<svg width="35" height="37" viewBox="0 0 35 37" fill="none" xmlns="http://www.w3.org/2000/svg">
<path d="M11.6244 31.4322C12.2076 31.3089 15.7615 31.3089 16.3447 31.4322C16.8433 31.5474 17.3825 31.8165 17.3825 32.404C17.3535 32.9633 17.0253 33.4592 16.572 33.7741C15.9841 34.2323 15.2942 34.5225 14.573 34.6271C14.1741 34.6788 13.7822 34.68 13.3972 34.6271C12.6749 34.5225 11.985 34.2323 11.3983 33.7729C10.9437 33.4592 10.6156 32.9633 10.5866 32.404C10.5866 31.8165 11.1258 31.5474 11.6244 31.4322ZM14.0534 11.333C16.4803 11.333 18.9593 12.4845 20.4318 14.3951C21.3873 15.6254 21.8256 16.8544 21.8256 18.765V19.2621C21.8256 20.7273 22.2128 21.591 23.0651 22.5862C23.7109 23.3194 23.9173 24.2606 23.9173 25.2817C23.9173 26.3016 23.5822 27.2698 22.9109 28.0559C22.032 28.9983 20.7925 29.5999 19.5274 29.7045C17.6943 29.8608 15.8599 29.9924 14.0012 29.9924C12.1414 29.9924 10.3082 29.9136 8.47503 29.7045C7.20885 29.5999 5.96934 28.9983 5.09159 28.0559C4.42024 27.2698 4.08398 26.3016 4.08398 25.2817C4.08398 24.2606 4.29154 23.3194 4.93622 22.5862C5.81513 21.591 6.17689 20.7273 6.17689 19.2621V18.765C6.17689 16.8027 6.6662 15.5196 7.67381 14.2635C9.17189 12.4317 11.5732 11.333 13.9491 11.333H14.0534Z" fill="#739EF1"/>
<circle cx="25" cy="10" r="10" fill="#FF5C9E"/>
<path d="M22.852 12.236V14H28.144V12.68H24.28V12.572L27.1 9.92C27.64 9.392 28.084 8.804 28.084 7.88C28.084 6.632 27.088 5.444 25.444 5.444C23.716 5.444 22.84 6.8 22.84 8.096H24.196C24.196 7.328 24.688 6.788 25.42 6.788C26.2 6.788 26.644 7.304 26.644 7.94C26.644 8.408 26.44 8.756 26.056 9.14L22.852 12.236Z" fill="white"/>
</svg>
