<svg width="24" height="24" viewBox="0 0 24 24" fill="none" xmlns="http://www.w3.org/2000/svg">
<path d="M17.0562 0.33252C21.0089 0.33252 23.6654 3.10685 23.6654 7.23568V16.7638C23.6654 20.8927 21.0089 23.6658 17.055 23.6658H6.94236C2.98853 23.6658 0.332031 20.8927 0.332031 16.7638V7.23568C0.332031 3.10685 2.98853 0.33252 6.94236 0.33252H17.0562ZM8.3132 8.96469C6.6402 8.96469 5.2787 10.3262 5.2787 11.9992C5.2787 13.6734 6.6402 15.0349 8.3132 15.0349C9.68053 15.0349 10.8262 14.1202 11.2042 12.8742H13.6682V14.1599C13.6682 14.6429 14.0602 15.0349 14.5432 15.0349C15.0262 15.0349 15.4182 14.6429 15.4182 14.1599V12.8742H16.9699V14.1599C16.9699 14.6429 17.3619 15.0349 17.8449 15.0349C18.3279 15.0349 18.7199 14.6429 18.7199 14.1599V11.9992C18.7199 11.5162 18.3279 11.1242 17.8449 11.1242H11.2042C10.8262 9.87935 9.68053 8.96469 8.3132 8.96469ZM8.31331 10.7146C9.02148 10.7146 9.59898 11.2909 9.59898 12.0002C9.59898 12.7084 9.02148 13.2847 8.31331 13.2847C7.60515 13.2847 7.02765 12.7084 7.02765 12.0002C7.02765 11.2909 7.60515 10.7146 8.31331 10.7146Z" fill="#DADBE7"/>
</svg>
