<svg width="250" height="355" viewBox="0 0 250 355" fill="none" xmlns="http://www.w3.org/2000/svg">
<path d="M224.718 47.7105L164.158 30.1948L144.429 98.5077L204.99 116.023L224.718 47.7105Z" fill="#739EF1"/>
<path d="M224.929 49.4866L162.895 30.8938L142.243 99.8995L204.278 118.492L224.929 49.4866Z" stroke="#1E1991" stroke-width="0.5" stroke-miterlimit="10"/>
<path d="M220.382 50.2271L165.795 34.439L150.793 86.3833L205.38 102.171L220.382 50.2271Z" fill="#575FCC"/>
<mask id="mask0_409_12666" style="mask-type:alpha" maskUnits="userSpaceOnUse" x="150" y="34" width="71" height="69">
<path d="M220.382 50.2271L165.795 34.439L150.793 86.3833L205.38 102.171L220.382 50.2271Z" fill="#575FCC"/>
</mask>
<g mask="url(#mask0_409_12666)">
<path d="M161.785 74.1838C157.658 75.8122 159.026 88.2029 162.701 93.7458C166.376 99.2887 173.477 92.6674 173.477 92.6674L161.785 74.1838Z" fill="#FF5C9E"/>
<path d="M188.93 102.89C188.327 104.301 187.303 105.491 185.999 106.298C184.587 107.128 181.43 103.818 181.43 103.753C181.672 102.38 182.032 101.03 182.507 99.7198C182.755 99.6227 186.3 99.3208 186.3 99.3208L188.93 102.89Z" fill="#FFC7E0" stroke="#262C97" stroke-width="0.23" stroke-miterlimit="10"/>
<path d="M165.504 90.9312C160.687 90.9312 147.422 106.762 147.422 106.762C147.422 108.617 148.683 110.256 150.558 111.798C150.558 111.798 162.271 104.745 165.849 102.319C169.426 99.8925 169.081 91.535 169.081 91.535L165.504 90.9312Z" fill="#363CB3"/>
<path d="M163.078 95.126C156.483 102.405 154.457 106.341 152.582 110.568C156.084 108.412 163.196 104.098 165.847 102.319C169.414 99.8816 168.336 90.4565 168.336 90.4565C166.41 91.8053 164.645 93.3722 163.078 95.126Z" fill="#363CB3"/>
<path d="M185.998 61.6636C185.783 68.4358 184.296 69.9024 189.974 71.369C195.653 72.8357 193.757 64.6615 193.757 64.6615L185.998 61.6636Z" fill="#15154C"/>
<path d="M188.919 62.8066L185.988 68.2956C185.988 68.2956 188.715 68.9211 188.941 69.374C189.167 69.8269 181.861 75.1649 179.717 72.2209C177.572 69.277 180.794 64.2301 180.794 64.2301L182.475 65.934L185.04 62.8713L188.919 62.8066Z" fill="#FFC7E0" stroke="#262C97" stroke-width="0.23" stroke-miterlimit="10"/>
<path d="M188.337 57.0266C185.32 56.2286 183.499 59.3883 183.057 62.1921C182.615 64.9959 185.331 65.7076 188.176 63.3244C188.757 62.7694 189.193 62.0796 189.445 61.316C189.697 60.5524 189.757 59.7385 189.62 58.9462C189.375 58.2016 188.931 57.538 188.337 57.0266Z" fill="#FFC7E0"/>
<path d="M188.176 63.3244C188.758 62.7695 189.194 62.0797 189.445 61.3161C189.697 60.5525 189.757 59.7385 189.62 58.9462C189.42 58.2586 189.009 57.6513 188.446 57.21C185.428 56.412 183.499 59.3668 183.058 62.1921C182.745 64.1764 184.135 65.1577 186.118 64.5215" stroke="#1E1991" stroke-width="0.23" stroke-miterlimit="10"/>
<path d="M186.709 60.3589C186.765 60.7257 186.962 61.056 187.258 61.2796C187.554 61.5032 187.925 61.6023 188.293 61.5559" stroke="#1E1991" stroke-width="0.23" stroke-miterlimit="10" stroke-linecap="round"/>
<path d="M185.632 59.8735C185.262 59.8883 184.902 59.7577 184.628 59.5097C184.354 59.2617 184.188 58.9161 184.166 58.5471" stroke="#1E1991" stroke-width="0.23" stroke-miterlimit="10" stroke-linecap="round"/>
<path d="M188.196 57.2745C188.07 57.9539 188.137 58.6551 188.39 59.2979C188.644 59.9406 189.073 60.4989 189.629 60.9087C188.934 62.371 188.55 63.9615 188.5 65.58C188.45 67.1984 188.735 68.8097 189.338 70.3122C191.321 75.7904 199.715 80.6432 206.095 76.5992C209.328 74.5395 210.049 68.8456 202.517 65.9556C198.778 64.5105 195.168 61.8469 194.198 59.4852C191.321 52.6159 185.685 54.0933 184.834 58.2667C186.029 58.2827 187.201 57.9369 188.196 57.2745Z" fill="#15154C"/>
<path d="M188.801 66.991C189.393 72.7064 191.947 76.2759 197.475 78.0876C203.003 79.8992 206.042 76.5994 206.915 75.37" stroke="#1E1991" stroke-width="0.23" stroke-miterlimit="10" stroke-linecap="round"/>
<path d="M188.197 57.2747C187.991 57.5956 187.863 57.9612 187.826 58.3412C187.789 58.7211 187.842 59.1045 187.982 59.4597C188.122 59.8148 188.345 60.1315 188.631 60.3835C188.918 60.6355 189.26 60.8156 189.63 60.9088" stroke="#1E1991" stroke-width="0.23" stroke-miterlimit="10" stroke-linecap="round"/>
<path d="M184.834 58.2992C187.183 51.6671 192.593 54.3523 194.662 58.8168C196.59 62.9902 202.302 64.3166 202.302 64.3166" stroke="#1E1991" stroke-width="0.23" stroke-miterlimit="10" stroke-linecap="round"/>
<path d="M188.326 62.5802C188.683 62.961 189.134 63.2397 189.634 63.3876C190.134 63.5354 190.665 63.5471 191.171 63.4214C192.701 62.8606 191.839 61.545 191.171 61.1999C190.613 60.9559 189.985 60.9214 189.404 61.1029L188.326 62.5802Z" fill="#FFC7E0"/>
<path d="M188.326 62.5802C188.683 62.961 189.134 63.2397 189.634 63.3876C190.134 63.5354 190.665 63.5471 191.171 63.4214C192.701 62.8606 191.839 61.545 191.171 61.1999C190.613 60.9559 189.985 60.9214 189.404 61.1029" stroke="#1E1991" stroke-width="0.23" stroke-miterlimit="10"/>
<path d="M191.872 61.9118L189.738 61.6746" stroke="#262C97" stroke-width="0.23" stroke-miterlimit="10"/>
<path d="M163.875 46.9868C162.733 45.5634 158.595 38.7695 157.592 37.0118C156.59 35.254 155.33 36.8177 155.879 40.3224C156.094 42.1033 156.577 43.8413 157.312 45.4771C157.312 45.4771 155.103 41.5302 154.909 42.0586C154.715 42.587 158.638 49.7044 159.284 50.3837C159.931 51.0631 163.875 46.9868 163.875 46.9868Z" fill="#FFC7E0" stroke="#262C97" stroke-width="0.23" stroke-miterlimit="10"/>
<path d="M162.098 44.9488C160.503 43.6763 158.661 40.5059 158.262 40.4627C157.863 40.4196 158.478 44.7763 159.437 46.3507" stroke="#1E1991" stroke-width="0.23" stroke-miterlimit="10"/>
<path d="M157.971 43.6653C157.095 41.4856 156.452 39.2191 156.053 36.9038" stroke="#1E1991" stroke-width="0.23" stroke-miterlimit="10"/>
<path d="M156.473 36.3323C156.828 37.5401 158.218 40.4625 158.218 40.4625" stroke="#1E1991" stroke-width="0.23" stroke-miterlimit="10"/>
<path d="M186.774 68.3497C186.774 68.3497 192.636 69.8378 192.614 73.1161C192.593 76.3944 179.823 79.2629 179.823 79.2629L171.203 76.8689L172.28 67.3036C166.3 62.0627 161.505 56.4227 158.811 50.0495C160.182 48.5487 161.852 47.3512 163.714 46.5339C171.03 56.4443 176.645 58.9569 182.14 65.3194C177.755 70.5604 181.86 74.0112 186.774 68.3497Z" fill="#FABF48"/>
<path d="M181.753 64.8665C180.837 65.7723 178.283 69.3525 180.309 71.3368C182.334 73.321 186.612 69.6006 187.464 68.5222" stroke="#1E1991" stroke-width="0.23" stroke-miterlimit="10"/>
<path d="M184.716 74.5396C180.61 76.4914 173.046 74.8307 173.046 74.8307L171.559 77.4404L178.304 79.8236L186.031 77.4835L184.716 74.5396Z" fill="#363CB3"/>
<path d="M170.891 70.9055L170.04 75.8014L167.087 75.0897C167.087 75.0897 165.827 82.4335 168.908 82.4227C171.99 82.4119 174.038 78.7885 174.038 78.7885L174.641 76.1249L173.434 76.0386L173.865 72.6094L170.891 70.9055Z" fill="#FFC7E0" stroke="#262C97" stroke-width="0.23" stroke-miterlimit="10"/>
<path d="M170.039 75.8013L169.727 77.613" stroke="#1E1991" stroke-width="0.23" stroke-miterlimit="10"/>
<path d="M171.172 71.0455C171.549 72.8249 173.629 74.9924 175.482 74.1621C177.336 73.3317 177.821 68.8995 176.905 66.2683C175.989 63.637 172.659 64.6938 172.659 64.6938L171.84 67.4545L171.172 71.0455Z" fill="#FFC7E0"/>
<path d="M172.713 73.5044C173.06 73.8586 173.502 74.105 173.985 74.214C174.469 74.323 174.974 74.2901 175.439 74.1191C177.26 73.2779 177.777 68.8566 176.862 66.2253C175.946 63.594 172.616 64.6509 172.616 64.6509L171.797 67.4115L171.172 71.0026" stroke="#1E1991" stroke-width="0.23" stroke-miterlimit="10"/>
<path d="M175.201 68.177L175.212 69.1152" stroke="#1E1991" stroke-width="0.23" stroke-linecap="round" stroke-linejoin="round"/>
<path d="M173.768 60.499C171.958 60.7255 169.63 62.4185 169.34 65.837C169.217 66.6127 169.328 67.4073 169.658 68.1197C169.988 68.8322 170.522 69.4302 171.193 69.8378" stroke="#1E1991" stroke-width="0.23" stroke-miterlimit="10" stroke-linecap="round"/>
<path d="M175.189 66.9047C177.42 66.5704 178.692 64.748 178.024 63.0441C177.355 61.3403 176.483 63.9392 176.483 63.9392L175.189 66.9047Z" stroke="#1E1991" stroke-width="0.23" stroke-miterlimit="10" stroke-linecap="round"/>
<path d="M172.637 66.5272C174.081 67.6055 177.422 67.0771 177.756 64.8664C178.09 62.6558 176.139 58.752 172.648 60.8009C169.156 62.8499 169.038 67.9398 170.051 68.8996C170.338 69.1686 170.709 69.3304 171.102 69.3579C171.494 69.3854 171.884 69.2768 172.206 69.0506L172.637 66.5272Z" fill="#575FCC"/>
<path d="M171.872 69.5036C170.956 68.2635 169.62 68.1988 169.372 68.986C169.124 69.7732 169.943 71.4986 171.419 71.229L171.872 69.5036Z" fill="#FFC7E0"/>
<path d="M171.872 69.5036C170.956 68.2635 169.62 68.1988 169.372 68.986C169.124 69.7732 169.943 71.4986 171.419 71.229" stroke="#1E1991" stroke-width="0.23" stroke-miterlimit="10"/>
<path d="M171.052 69.8702L169.371 68.9751" stroke="#262C97" stroke-width="0.23" stroke-miterlimit="10"/>
<path d="M170.277 92.2898C161.096 98.2856 156.99 103.322 154.113 109.738C151.236 116.154 145.223 131.716 145.223 131.716C145.481 133.689 150.406 138.013 155.6 139.739C155.6 139.739 162.518 118.613 164.511 115.324C166.505 112.035 171.839 109.177 171.839 109.177L176.645 93.2927L170.277 92.2898Z" fill="#575FCC"/>
<path d="M164.576 107.991C164.471 110.336 164.529 112.685 164.749 115.022C166.904 111.862 171.882 109.177 171.882 109.177L176.419 94.1445L175.126 95.9454C172.507 99.3423 164.899 101.736 164.576 107.991Z" fill="#363CB3"/>
<path d="M173.122 95.2014C168.359 101.736 167.357 104.378 167.303 112.305C167.25 120.231 170.353 137.474 170.353 137.474C174.857 137.765 180.838 136.989 184.771 133.797C184.771 133.797 178.122 116.64 179.782 107.97C180.632 103.235 181.883 98.581 183.521 94.0583L173.122 95.2014Z" fill="#575FCC"/>
<path d="M167.733 75.0464C167.733 75.0464 162.722 72.4367 160.815 74.9169C158.908 77.3972 159.371 84.8165 167.625 93.2495C175.88 101.682 181.257 93.6916 181.257 93.6916L186.645 79.7697C186.645 79.7697 180.438 77.2462 177.787 76.2973C175.136 75.3483 173.972 76.0924 173.972 76.0924C170.168 82.9078 165.211 82.8215 167.733 75.0464Z" fill="#FF5C9E"/>
<path d="M185.633 79.3491C191.204 81.1392 197.734 83.7597 197.066 89.583C196.398 95.4063 189.135 103.009 189.135 103.009C187.525 102.718 186.014 102.028 184.738 101.003C184.738 101.003 190.493 91.427 188.219 90.2193C186.255 89.2322 184.237 88.3573 182.174 87.5988L185.633 79.3491Z" fill="#FF5C9E"/>
<path d="M183.746 85.0646L182.948 85.7332L182.173 87.588C182.173 87.588 180.179 88.3321 180.912 88.6664C185.013 87.498 188.594 84.9645 191.063 81.4843C189.914 80.9325 188.734 80.45 187.528 80.0393L183.746 85.0646Z" fill="#363CB3"/>
<path d="M167.702 83.6305C165.924 83.4364 162.443 82.1531 162.228 82.3148C162.012 82.4766 165.137 84.4716 165.137 84.4716C163.31 84.0376 161.511 83.4938 159.749 82.8433C159.059 82.4119 158.478 85.2481 161.279 86.596C164.081 87.944 164.34 88.0195 164.34 88.0195C164.34 88.0195 161.646 87.4588 161.215 87.3293C160.784 87.1999 161.786 88.1489 164.2 88.6558C165.477 88.9553 166.795 89.0428 168.1 88.9146L169.178 87.5234L167.702 83.6305Z" fill="#FFC7E0" stroke="#262C97" stroke-width="0.23" stroke-miterlimit="10"/>
<path d="M163.38 85.1508C161.908 84.7617 160.505 84.1469 159.221 83.3284" stroke="#1E1991" stroke-width="0.23" stroke-miterlimit="10"/>
<path d="M159.426 84.8059C160.764 85.5337 162.172 86.1261 163.628 86.5745" stroke="#1E1991" stroke-width="0.23" stroke-miterlimit="10"/>
<path d="M190.158 69.7625C192.432 71.1428 194.533 73.5692 190.234 79.7483C185.934 85.9275 183.068 88.2352 178.499 89.4538C174.91 90.3812 168.046 89.1303 168.046 89.1303C167.192 87.3728 166.949 85.3801 167.357 83.4687C167.357 83.4687 177.141 83.4148 178.477 81.8727C179.813 80.3306 185.341 72.5016 187.734 72.0271C190.126 71.5526 190.158 69.7625 190.158 69.7625Z" fill="#FABF48"/>
<path d="M182.96 87.8684C182.96 87.8684 186.193 89.1948 187.389 89.7664C188.585 90.3379 189.382 90.4242 188.272 93.724C187.314 96.2511 186.131 98.6872 184.738 101.003L182.647 102.685C185.985 105.679 188.683 109.318 190.578 113.383C190.539 114.191 190.317 114.981 189.931 115.692C189.545 116.403 189.004 117.018 188.348 117.492C188.348 117.492 169.07 108.466 170.589 101.111C172.109 93.7564 182.96 87.8684 182.96 87.8684Z" fill="#363CB3"/>
<path d="M182.647 102.685L184.738 101.003C186.131 98.6871 187.313 96.251 188.272 93.724C189.35 90.4241 188.682 90.4133 187.389 89.7663C186.914 89.5399 186.095 89.1732 185.233 88.8281C186.925 94.8132 179.932 100.69 179.932 100.69C179.932 100.69 181.483 101.736 182.647 102.685Z" fill="#363CB3"/>
<path d="M178.154 99.7629C179.762 100.556 181.271 101.537 182.648 102.685" stroke="#1E1991" stroke-width="0.23" stroke-miterlimit="10"/>
<path d="M188.347 117.492C188.347 117.492 172.28 108.983 170.739 106.525C169.199 104.066 170.352 99.666 172.474 96.7004" stroke="#1E1991" stroke-width="0.23" stroke-miterlimit="10"/>
</g>
<path d="M80.6761 68.3531L37.7578 79.3809L50.1789 127.794L93.0972 116.766L80.6761 68.3531Z" fill="#FABF48"/>
<path d="M79.126 71.1409L40.4453 81.0798L49.8891 117.888L88.5698 107.949L79.126 71.1409Z" fill="#575FCC"/>
<mask id="mask1_409_12666" style="mask-type:alpha" maskUnits="userSpaceOnUse" x="40" y="71" width="49" height="47">
<path d="M79.126 71.1412L40.4453 81.0801L49.8891 117.888L88.5698 107.95L79.126 71.1412Z" fill="#575FCC"/>
</mask>
<g mask="url(#mask1_409_12666)">
<path d="M62.9973 116.218C64.0749 128.717 94.1935 167.291 101.995 174.354L82.3939 180.35C73.6978 168.703 65.6051 154.846 57.9219 139.544C60.2407 154.851 64.7557 169.742 71.3271 183.758L53.7193 189.15C53.7193 189.15 38.8271 139.317 43.493 124.533C48.159 109.748 62.9973 116.218 62.9973 116.218Z" fill="#3B36B3"/>
<path d="M67.7925 135.144C69.6891 133.818 76.5317 146.381 86.9951 156.776C79.1395 146.575 70.5619 134.217 66.0899 125.126L57.1352 127.897C57.1352 127.897 43.8701 116.909 42.5986 127.822C39.98 150.252 66.1007 171.302 66.1007 171.302C62.3628 161 59.6239 150.361 57.9218 139.533C62.0274 147.707 66.2516 155.472 70.6158 162.708C70.4111 162.017 61.424 139.63 67.7925 135.144Z" fill="#1E1991"/>
<path d="M58.8037 94.0791L56.2067 99.2122L52.5645 99.8592C52.5645 99.8592 53.502 103.838 56.4976 104.173C59.4933 104.507 61.8856 100.765 61.8856 100.765L59.6334 99.8592L60.711 97.0339L58.8037 94.0791Z" fill="#FFC7E0" stroke="#262C97" stroke-width="0.23" stroke-miterlimit="10"/>
<path d="M58.8046 94.0792C58.6106 95.9125 59.8822 98.6408 61.9296 98.3928C63.977 98.1448 65.8305 94.0792 65.7658 91.2647C65.7012 88.4501 62.1882 88.4177 62.1882 88.4177L60.5395 90.8441L58.8046 94.0792Z" fill="#FFC7E0"/>
<path d="M59.559 96.9801C59.7806 97.4155 60.1208 97.7793 60.5404 98.0293C60.9599 98.2793 61.4416 98.4053 61.9297 98.3928C63.934 98.1555 65.8305 94.0792 65.7659 91.2647C65.7012 88.4501 62.1883 88.4177 62.1883 88.4177L60.5396 90.8441L58.8047 94.0792" stroke="#1E1991" stroke-width="0.23" stroke-miterlimit="10"/>
<path d="M61.9941 92.5371C62.0054 92.9109 62.1632 93.2652 62.4334 93.5235C62.7036 93.7817 63.0645 93.9233 63.4381 93.9174" stroke="#1E1991" stroke-width="0.23" stroke-miterlimit="10" stroke-linecap="round"/>
<path d="M62.2105 94.9312C62.0488 95.1684 61.6286 95.1684 61.2622 94.9312C60.8958 94.6939 60.7234 94.3057 60.885 94.0577C61.0467 93.8096 61.4669 93.8312 61.8333 94.0577C62.1997 94.2841 62.3613 94.6939 62.2105 94.9312Z" fill="#FF5C9E"/>
<path d="M61.6058 90.2508C62.6834 91.7282 66.0239 92.2782 66.9937 90.2508C67.9636 88.2234 67.3601 83.8668 63.3623 84.7402C59.3644 85.6137 57.6618 90.4557 58.3407 91.7066C58.5299 92.0556 58.8341 92.328 59.2016 92.4774C59.5691 92.6269 59.977 92.6441 60.3558 92.5262L61.6058 90.2508Z" fill="#575FCC"/>
<path d="M65.7867 85.1071C64.1487 84.2875 61.2393 84.3954 59.0841 87.1021C58.4527 87.7576 58.0746 88.6163 58.0174 89.525C57.9601 90.4336 58.2274 91.333 58.7716 92.0627" stroke="#1E1991" stroke-width="0.23" stroke-miterlimit="10" stroke-linecap="round"/>
<path d="M63.416 91.2754C65.4634 92.246 67.5647 91.4264 67.9526 89.6255C68.3406 87.8246 66.1531 89.5177 66.1531 89.5177L63.416 91.2754Z" stroke="#1E1991" stroke-width="0.23" stroke-miterlimit="10" stroke-linecap="round"/>
<path d="M59.9463 92.8714C59.4613 91.3941 58.1898 90.9196 57.7157 91.5882C57.5757 91.8501 57.4976 92.1406 57.4875 92.4374C57.4773 92.7342 57.5354 93.0294 57.6572 93.3003C57.779 93.5711 57.9612 93.8104 58.1899 93.9997C58.4187 94.1889 58.6877 94.3231 58.9764 94.392L59.9463 92.8714Z" fill="#FFC7E0"/>
<path d="M59.9463 92.8714C59.4613 91.3941 58.1898 90.9196 57.7157 91.5882C57.5757 91.8501 57.4976 92.1406 57.4875 92.4374C57.4773 92.7342 57.5354 93.0294 57.6572 93.3003C57.779 93.5711 57.9612 93.8104 58.1899 93.9997C58.4187 94.1889 58.6877 94.3231 58.9764 94.392" stroke="#1E1991" stroke-width="0.23" stroke-miterlimit="10"/>
<path d="M59.0521 92.9685L57.7051 91.5881" stroke="#262C97" stroke-width="0.23" stroke-miterlimit="10"/>
<path d="M55.0224 99.471C55.0224 99.471 54.9038 102.943 57.5008 102.868C58.276 102.812 59.0203 102.542 59.6504 102.087C60.2804 101.631 60.7712 101.009 61.0676 100.291C61.0676 100.291 64.0633 101.25 65.2163 102.749C66.3694 104.248 67.5547 110.654 67.2314 113.264C66.9081 115.873 59.559 123.088 59.559 123.088L39.7314 116.617C39.7314 116.617 39.5482 105.262 44.2573 101.617C47.587 99.0396 55.0224 99.471 55.0224 99.471Z" fill="#FF5C9E"/>
<path d="M56.6179 113.253C54.4627 112.541 55.8636 106.157 56.1653 102.469C55.5861 101.99 55.2027 101.314 55.0877 100.571L53.148 100.452L50.1523 108.055L53.1049 115.118C53.1049 115.118 58.7946 113.975 56.6179 113.253Z" fill="#1E1991"/>
<path d="M66.024 99.7192L65.4313 105.305C65.4313 105.305 60.3235 113.199 61.0347 112.703C61.7459 112.207 68.4916 105.154 69.1921 104.54C70.8192 103.062 68.955 98.835 68.955 98.835L66.024 99.7192Z" fill="#FFC7E0" stroke="#262C97" stroke-width="0.23" stroke-miterlimit="10"/>
<path d="M69.3424 93.7557C67.6075 93.5508 65.0321 95.4272 63.4588 96.9261C61.8855 98.4251 64.6873 100.97 67.8661 99.5358C68.5467 99.1538 69.1222 98.6093 69.5415 97.9508C69.9607 97.2922 70.2107 96.5401 70.2692 95.7615C70.2215 95.0005 69.8909 94.2849 69.3424 93.7557Z" fill="#FFC7E0"/>
<path d="M67.8667 99.5358C68.5472 99.1538 69.1228 98.6093 69.542 97.9508C69.9613 97.2922 70.2113 96.5401 70.2697 95.7615C70.2221 95.0005 69.8914 94.2849 69.343 93.7557C67.6081 93.5508 65.0327 95.4272 63.4594 96.9261C62.134 98.231 64.0413 100.334 66.6921 99.9025" stroke="#1E1991" stroke-width="0.23" stroke-miterlimit="10"/>
<path d="M66.8535 95.4055C66.8891 95.7776 67.0695 96.1208 67.3558 96.361C67.6421 96.6011 68.0114 96.7188 68.3837 96.6888" stroke="#1E1991" stroke-width="0.23" stroke-miterlimit="10" stroke-linecap="round"/>
<path d="M66.7033 97.9938C66.4663 98.1555 66.0676 97.9938 65.8305 97.6271C65.5934 97.2605 65.5719 96.8399 65.8305 96.6781C66.0891 96.5164 66.4663 96.6781 66.7141 97.0448C66.962 97.4114 66.9404 97.832 66.7033 97.9938Z" fill="#FF5C9E"/>
<path d="M68.0181 93.9174C67.8026 94.7801 68.988 97.3143 69.516 98.0584C70.044 98.8025 68.1367 100.01 67.8134 101.844C67.4901 103.677 67.4901 105.488 69.2466 105.812C71.0031 106.136 73.3091 107.43 73.5569 109.586C73.8048 111.743 73.7724 116.736 78.0074 119.421C82.2423 122.106 89.5052 118.699 87.4794 110.05C85.4535 101.401 78.4276 102.081 76.1647 101.11C73.9018 100.14 72.5979 99.374 72.4039 97.0878C72.0483 93.4537 69.1496 92.1812 68.0181 93.9174Z" fill="#15154C"/>
<path d="M68.0176 93.9173C68.0176 93.9173 68.093 92.6556 69.9788 92.7526C71.8646 92.8497 72.759 95.1251 73.1253 95.9878C73.4268 96.8441 73.9394 97.6103 74.6157 98.2154C75.292 98.8205 76.11 99.245 76.9939 99.4494C79.634 100.075 81.8861 99.6866 84.0197 100.14C85.5587 100.442 86.988 101.154 88.1577 102.199" stroke="#1E1991" stroke-width="0.23" stroke-miterlimit="10" stroke-linecap="round"/>
<path d="M86.499 116.617C89.4624 112.8 88.1477 102.189 78.0723 101.779" stroke="#1E1991" stroke-width="0.23" stroke-miterlimit="10"/>
<path d="M67.7383 99.1691C67.9795 99.6381 68.3413 100.034 68.7864 100.317C69.2315 100.599 69.7439 100.758 70.2706 100.776C71.9085 100.679 71.4452 99.1475 70.8956 98.6191C70.4213 98.2255 69.8198 98.0184 69.2038 98.0368L67.7383 99.1691Z" fill="#FFC7E0"/>
<path d="M67.7383 99.1691C67.9795 99.6381 68.3413 100.034 68.7864 100.317C69.2315 100.599 69.7439 100.758 70.2706 100.776C71.9085 100.679 71.4452 99.1475 70.8956 98.6191C70.4213 98.2255 69.8198 98.0184 69.2038 98.0368" stroke="#1E1991" stroke-width="0.23" stroke-miterlimit="10"/>
<path d="M71.3803 99.5142L69.3652 98.6946" stroke="#262C97" stroke-width="0.23" stroke-miterlimit="10"/>
<path d="M48.028 115.647C45.2155 112.573 41.3039 111.883 30.3125 115.647C19.3211 119.41 9.52584 122.732 8.67455 122.117C7.82326 121.502 3.50213 116.509 3.00644 116.132C2.51075 115.755 1.36852 119.475 4.60127 124.026C7.83403 128.577 9.62283 128.134 9.62283 128.134C9.74815 127.852 9.94191 127.606 10.1865 127.417C10.4312 127.229 10.7189 127.105 11.0237 127.056C11.9827 126.981 22.3383 128.523 30.4202 126.657C38.5021 124.791 40.3664 123.109 40.3664 123.109L47.9741 124.565L51.584 117.577L48.028 115.647Z" fill="#FFC7E0" stroke="#262C97" stroke-width="0.23" stroke-miterlimit="10"/>
<path d="M61.5839 109.241C64.6227 107.181 69.4826 101.93 73.0709 103.849C76.6593 105.769 72.155 116.79 69.558 123.433C66.961 130.076 66.3253 134.087 67.8016 138.013C69.2779 141.938 76.7563 153.11 76.7563 153.11C73.5287 151.487 70.0487 150.426 66.4654 149.972C60.0645 149.055 51.7348 148.893 47.0688 140.547C40.377 128.684 45.905 113.77 45.905 113.77C48.0719 115.114 50.6664 115.588 53.1679 115.097C57.1766 114.213 61.5839 109.241 61.5839 109.241Z" fill="#FABF48"/>
<path d="M74.0946 105.014C74.7412 107.365 71.002 112.563 71.002 112.563L72.7369 114.957C74.0731 110.934 74.9567 107.02 74.0946 105.014Z" fill="#1E1991"/>
<path d="M51.0352 118.084C52.436 123.702 55.8089 122.743 58.4813 121.74C61.9689 120.296 65.0746 118.063 67.5546 115.216L64.5696 116.952L51.0352 118.084Z" fill="#1E1991"/>
<path d="M62.4258 108.562C64.3535 110.722 65.5393 113.443 65.8094 116.326" stroke="#1E1991" stroke-width="0.23" stroke-miterlimit="10"/>
<path d="M47.1767 114.331C45.3672 121.594 45.7687 129.233 48.3298 136.266C51.5625 144.623 58.5237 146.845 65.8298 148.193C73.75 149.648 75.722 151.546 75.722 151.546" stroke="#1E1991" stroke-width="0.23" stroke-miterlimit="10"/>
<path d="M48.1157 99.9888C49.5684 98.3883 51.5005 97.3024 53.6222 96.8938C57.523 95.9556 56.4454 98.3604 56.2084 99.2231C55.9713 100.086 53.4282 109.317 53.6329 111.215C53.8377 113.113 54.5166 113.156 55.7881 112.746C57.7933 111.753 59.7269 110.622 61.5748 109.36C63.224 111.568 64.2645 114.171 64.592 116.909C64.592 116.909 53.8161 123.25 49.9799 120.564C44.592 116.747 51.0575 99.5251 51.0575 99.5251C50.0679 99.6157 49.0852 99.7706 48.1157 99.9888Z" fill="#FFC7E0"/>
<path d="M64.6781 117.049C64.6781 117.049 53.8375 123.26 50.0229 120.575C44.635 116.769 51.1005 100.334 51.1005 99.5359" stroke="#1E1991" stroke-width="0.23" stroke-miterlimit="10"/>
<path d="M48.1152 99.9888C48.0183 99.5897 49.7208 97.832 53.6217 96.8938C57.5226 95.9556 56.445 98.3604 56.2079 99.2231C55.9708 100.086 53.4277 109.317 53.6325 111.215C53.8372 113.113 54.5161 113.156 55.7877 112.746C57.7928 111.753 59.7264 110.622 61.5743 109.36" stroke="#1E1991" stroke-width="0.23" stroke-miterlimit="10"/>
<path d="M46.3487 100.549C46.3487 100.549 43.9025 99.7191 41.6719 102.814C39.4413 105.909 40.2711 108.756 41.3594 109.975C42.4478 111.193 42.437 111.484 42.9219 111.527C43.4068 111.571 44.3982 109.802 44.4521 108.616C44.506 107.43 44.6461 105.985 44.6461 105.985C44.6461 105.985 45.5943 107.279 45.7237 106.157C45.6438 104.267 45.8546 102.376 46.3487 100.549Z" fill="#FFC7E0" stroke="#262C97" stroke-width="0.23" stroke-miterlimit="10"/>
<path d="M44.9463 103.375C44.6849 104.204 44.5825 105.074 44.6446 105.941" stroke="#1E1991" stroke-width="0.23" stroke-miterlimit="10"/>
<path d="M42.791 105.715C42.791 106.578 43.7501 110.654 43.7501 110.654" stroke="#1E1991" stroke-width="0.23" stroke-miterlimit="10"/>
<path d="M41.3477 106.157C41.5332 107.825 41.8612 109.474 42.3283 111.085" stroke="#1E1991" stroke-width="0.23" stroke-miterlimit="10"/>
<path d="M72.4899 85.8295C72.4899 85.8295 72.3282 82.961 70.992 84.6325C70.1731 85.657 70.3024 88.6333 70.3024 88.6333C70.3024 88.6333 74.2248 87.8137 74.4511 86.0775C74.5373 85.0315 72.4899 85.8295 72.4899 85.8295Z" fill="#FF5C9E"/>
<path d="M73.1465 113.63C73.1465 113.544 72.0689 109.511 72.5538 109.198C73.0388 108.885 75.431 112.142 75.334 115.755C75.237 119.551 72.1013 122.311 70.0646 122.149C69.5199 120.034 69.2198 117.863 69.1702 115.679C69.084 112.034 67.7263 110.158 68.6422 109.975C70.5603 109.597 73.1465 113.63 73.1465 113.63Z" fill="#FFC7E0" stroke="#262C97" stroke-width="0.23" stroke-miterlimit="10"/>
<path d="M68.3301 110.481C69.517 111.997 70.5393 113.634 71.3797 115.367" stroke="#1E1991" stroke-width="0.23" stroke-miterlimit="10"/>
<path d="M70.1199 116.811C69.7977 115.656 69.4055 114.522 68.9453 113.415" stroke="#1E1991" stroke-width="0.23" stroke-miterlimit="10"/>
<path d="M37.2523 125.352C38.5239 126.064 43.7178 126.334 43.7178 125.288C44.1381 120.877 41.7028 116.779 40.9485 116.66C38.4377 116.337 36.7459 122.052 36.7459 122.052C36.7459 122.052 36.0885 117.868 35.5713 117.825C35.054 117.782 34.0411 123.562 37.2523 125.352Z" fill="#FFC7E0" stroke="#262C97" stroke-width="0.23" stroke-miterlimit="10"/>
<path d="M40.3457 121.708C40.5289 119.799 41.0461 117.491 41.003 116.715" stroke="#1E1991" stroke-width="0.23" stroke-miterlimit="10"/>
<path d="M41.9297 122.117C42.2189 120.661 42.2189 119.163 41.9297 117.707" stroke="#1E1991" stroke-width="0.23" stroke-miterlimit="10"/>
</g>
<path d="M38.8371 44.9317C38.8405 42.063 37.9981 39.257 36.4154 36.8652C34.8328 34.4733 32.5802 32.6018 29.9397 31.4851C27.2993 30.3683 24.3883 30.0559 21.5712 30.587C18.7542 31.118 16.1563 32.4689 14.1028 34.4705C12.0493 36.4722 10.6315 39.0355 10.0269 41.8397C9.42235 44.6439 9.65783 47.5643 10.7039 50.2352C11.75 52.9061 13.5601 55.2088 15.9078 56.855C18.2554 58.5012 21.0361 59.4178 23.9018 59.4899L32.1238 67.2327L30.6906 58.0017C33.1332 56.8026 35.1912 54.9425 36.6311 52.6323C38.0711 50.3222 38.8353 47.6544 38.8371 44.9317Z" fill="#68D1A2"/>
<path d="M29.721 40.2947C29.2513 39.9791 28.7144 39.7777 28.1532 39.7065C27.5919 39.6354 27.0218 39.6965 26.4883 39.8849C25.9683 40.0898 25.4946 40.3966 25.0949 40.7873C24.6951 41.1781 24.3775 41.6449 24.1607 42.1603C23.8412 41.7011 23.4321 41.3115 22.9579 41.0149C22.4838 40.7184 21.9545 40.521 21.4021 40.4349C20.8329 40.3508 20.252 40.4048 19.7081 40.5925C19.1642 40.7802 18.6734 41.096 18.2771 41.5133C17.7701 42.1506 17.4628 42.9237 17.3938 43.7353C17.3247 44.547 17.4971 45.3609 17.8891 46.0748C18.7063 47.4934 19.984 48.5893 21.5098 49.1806C22.5969 49.7402 23.7831 50.081 25.0012 50.1835C26.1777 49.8224 27.2748 49.2405 28.234 48.4688C29.5974 47.564 30.6122 46.2214 31.1111 44.6621C31.3348 43.8781 31.3223 43.0453 31.075 42.2684C30.8277 41.4914 30.3567 40.8048 29.721 40.2947Z" fill="white"/>
<path d="M201.6 146.551C202.166 144.24 203.4 142.147 205.148 140.535C206.897 138.923 209.081 137.863 211.429 137.487C213.777 137.111 216.183 137.436 218.346 138.423C220.51 139.409 222.335 141.012 223.592 143.031C224.85 145.05 225.485 147.395 225.417 149.773C225.349 152.151 224.582 154.457 223.211 156.401C221.841 158.344 219.927 159.841 217.711 160.702C215.495 161.563 213.074 161.751 210.752 161.241L202.608 165.807L205.585 158.657C203.858 157.212 202.569 155.313 201.865 153.173C201.161 151.034 201.069 148.74 201.6 146.551Z" fill="#739EF1"/>
<path d="M209.858 144.627C210.305 144.456 210.787 144.395 211.263 144.45C211.738 144.506 212.193 144.675 212.589 144.944C212.969 145.212 213.291 145.553 213.537 145.947C213.783 146.342 213.947 146.781 214.021 147.24C214.368 146.935 214.774 146.702 215.213 146.558C215.652 146.413 216.116 146.358 216.577 146.398C217.046 146.446 217.496 146.607 217.889 146.866C218.282 147.125 218.607 147.475 218.837 147.886C219.13 148.505 219.23 149.198 219.125 149.875C219.019 150.552 218.713 151.181 218.246 151.682C217.303 152.652 216.058 153.272 214.716 153.441C213.73 153.673 212.708 153.715 211.706 153.567C210.839 153.046 210.08 152.365 209.468 151.559C208.548 150.557 207.993 149.272 207.896 147.915C207.859 147.234 208.026 146.557 208.376 145.971C208.726 145.386 209.242 144.918 209.858 144.627Z" fill="white"/>
<path d="M36.2608 150.829L60.6358 146.882C61.82 146.692 63.0312 146.979 64.0045 147.681C64.9778 148.382 65.6341 149.44 65.8298 150.624L67.4246 160.567C67.6145 161.752 67.3277 162.964 66.627 163.938C65.9263 164.912 64.8686 165.569 63.6854 165.765L45.3664 168.731C46.5517 170.721 47.6308 172.773 48.5992 174.877C48.4268 174.877 42.9957 171.48 39.9785 169.593L39.2888 169.712C38.1147 169.894 36.9161 169.609 35.9495 168.917C34.9828 168.226 34.3249 167.184 34.1164 166.013L32.5108 156.07C32.4092 155.479 32.4259 154.874 32.5599 154.29C32.6939 153.705 32.9425 153.153 33.2914 152.666C33.6402 152.178 34.0824 151.765 34.5921 151.449C35.1018 151.134 35.669 150.923 36.2608 150.829Z" fill="#FABF48"/>
<path d="M55.8633 157.138C55.9214 157.507 56.0876 157.85 56.3408 158.125C56.5941 158.399 56.9231 158.592 57.286 158.679C57.649 158.766 58.0296 158.744 58.3797 158.614C58.7299 158.485 59.0337 158.254 59.2528 157.952C59.4719 157.65 59.5964 157.289 59.6105 156.916C59.6246 156.542 59.5277 156.173 59.3321 155.855C59.1364 155.537 58.8508 155.284 58.5115 155.129C58.1721 154.973 57.7943 154.922 57.4258 154.981C56.9345 155.063 56.4952 155.336 56.2029 155.739C55.9105 156.143 55.7885 156.645 55.8633 157.138Z" fill="white"/>
<path d="M48.0929 158.389C48.151 158.758 48.3172 159.101 48.5705 159.375C48.8237 159.65 49.1527 159.843 49.5156 159.93C49.8786 160.017 50.2593 159.995 50.6094 159.865C50.9595 159.736 51.2634 159.505 51.4825 159.203C51.7016 158.9 51.826 158.54 51.8401 158.166C51.8542 157.793 51.7573 157.424 51.5617 157.106C51.366 156.788 51.0805 156.535 50.7411 156.379C50.4018 156.224 50.0239 156.172 49.6554 156.232C49.4109 156.27 49.1763 156.356 48.9652 156.485C48.7541 156.614 48.5706 156.784 48.4253 156.985C48.2801 157.185 48.1759 157.412 48.1189 157.653C48.0618 157.894 48.053 158.144 48.0929 158.389Z" fill="white"/>
<path d="M40.3242 159.64C40.3807 160.012 40.5465 160.359 40.8007 160.637C41.0549 160.914 41.3858 161.11 41.7515 161.199C42.1172 161.288 42.501 161.266 42.8542 161.136C43.2074 161.006 43.5139 160.774 43.7348 160.469C43.9556 160.164 44.0809 159.8 44.0946 159.424C44.1083 159.047 44.0098 158.676 43.8116 158.355C43.6135 158.035 43.3247 157.781 42.9819 157.626C42.6391 157.471 42.2579 157.421 41.8867 157.483C41.3954 157.565 40.9562 157.837 40.6638 158.241C40.3715 158.644 40.2495 159.147 40.3242 159.64Z" fill="white"/>
<path d="M79.3782 69.9843L36.2676 81.5288L49.5613 131.245L92.672 119.701L79.3782 69.9843Z" stroke="#1E1991" stroke-width="0.5" stroke-miterlimit="10"/>
<path d="M110.104 208.536C110.104 208.536 106.748 256.713 105.377 309.876H127.776L125.384 190.38L90.5421 186.444C75.2251 219.37 75.4142 309.876 75.4142 309.876H104.034C102.276 288.721 106.71 234.839 110.104 208.536Z" fill="#575FCC"/>
<path d="M103.005 198.299C113.547 196.54 118.936 192.869 118.936 192.869L112.885 188.933L96.8117 189.879L91.4792 186.548L90.5337 186.444C87.943 192.017 85.8062 199.245 84.0098 207.41C88.8696 201.185 95.5543 199.577 103.005 198.299Z" fill="#363CB3"/>
<path d="M93.2842 302.212C88.6891 302.212 85.1529 298.03 86.921 295.986C89.2847 293.271 93.0762 297.462 93.6435 301.493C93.8987 297.86 95.8843 293.924 98.664 295.334C101.444 296.743 98.4938 301.711 94.3148 302.212" stroke="#1E1991" stroke-width="0.5" stroke-miterlimit="10"/>
<path d="M102.568 310.661C102.568 310.661 103.996 302.222 94.1251 301.2C84.2541 300.178 81.4082 310.661 81.4082 310.661H102.568Z" fill="#15154C"/>
<path d="M81.4082 310.661H102.568C102.634 310.051 102.634 309.436 102.568 308.826C99.7675 308.477 96.9476 308.303 94.1251 308.305C89.8987 308.371 85.3604 308.797 81.9093 309.195C81.7121 309.673 81.5447 310.162 81.4082 310.661Z" fill="#FABF48"/>
<path d="M117.253 302.212C112.648 302.212 109.112 298.03 110.88 295.986C113.244 293.271 117.045 297.462 117.602 301.493C117.867 297.86 119.853 293.924 122.632 295.334C125.412 296.743 122.453 301.711 118.274 302.212" stroke="#1E1991" stroke-width="0.5" stroke-miterlimit="10"/>
<path d="M126.527 310.661C126.527 310.661 127.955 302.222 118.094 301.2C108.232 300.178 105.367 310.661 105.367 310.661H126.527Z" fill="#15154C"/>
<path d="M105.367 310.661H126.527C126.613 310.053 126.629 309.437 126.575 308.826C123.771 308.477 120.948 308.303 118.122 308.305C113.896 308.371 109.357 308.797 105.906 309.195C105.696 309.672 105.516 310.161 105.367 310.661Z" fill="#FABF48"/>
<path d="M102.928 124.217L100.517 137.548L92.9531 139.743C92.9531 139.743 97.5766 148.637 106.341 148.258C108.681 148.288 110.948 147.442 112.697 145.886C114.446 144.33 115.551 142.176 115.796 139.847L108.44 137.596L108.497 129.355L104.299 123.934L102.928 124.217Z" fill="#FFC7E0" stroke="#262C97" stroke-width="0.5" stroke-miterlimit="10"/>
<path d="M103.807 124.757C103.325 127.841 105.33 132.572 108.734 132.326C112.137 132.08 115.692 125.343 115.825 120.584C115.957 115.825 110.01 115.475 110.01 115.475L107.013 119.383L103.807 124.757Z" fill="#FFC7E0"/>
<path d="M104.764 129.705C105.624 131.285 106.995 132.467 108.735 132.354C112.148 132.127 115.693 125.372 115.826 120.612C115.958 115.853 110.011 115.503 110.011 115.503L107.014 119.411L103.809 124.757" stroke="#1E1991" stroke-width="0.5" stroke-miterlimit="10"/>
<path d="M111.976 122.722L111.428 124.217" stroke="#1E1991" stroke-width="0.5" stroke-linecap="round" stroke-linejoin="round"/>
<path d="M114.699 109.931C111.712 108.304 105.103 109.288 102.55 114.557C100.791 118.2 103.561 121.672 104.573 122.921" stroke="#1E1991" stroke-width="0.5" stroke-miterlimit="10" stroke-linecap="round"/>
<path d="M112.744 120.717C116.526 121.549 119.665 119.411 119.627 116.289C119.59 113.167 116.621 116.771 116.621 116.771L112.744 120.717Z" stroke="#1E1991" stroke-width="0.5" stroke-miterlimit="10" stroke-linecap="round"/>
<path d="M108.867 118.493C110.521 121.086 116.185 122.278 118.066 118.985C119.948 115.693 118.908 109.24 111.977 109.004C108.621 108.89 105.359 111.426 103.808 113.375C102.939 114.378 102.419 115.636 102.327 116.96C102.235 118.285 102.576 119.603 103.298 120.717C103.671 121.244 104.175 121.664 104.76 121.936C105.346 122.209 105.992 122.323 106.635 122.268L108.867 118.493Z" fill="#575FCC"/>
<path d="M105.841 122.789C105.151 120.253 103.005 119.326 102.173 120.433C101.341 121.54 101.558 124.795 104.064 125.277L105.841 122.789Z" fill="#FFC7E0"/>
<path d="M105.841 122.789C105.151 120.253 103.005 119.326 102.173 120.433C101.341 121.54 101.558 124.795 104.064 125.277" stroke="#1E1991" stroke-width="0.5" stroke-miterlimit="10"/>
<path d="M104.318 122.883L102.172 120.433" stroke="#262C97" stroke-width="0.5" stroke-miterlimit="10"/>
<path d="M98.5506 137.898C98.5506 137.898 100.281 146.943 107.06 146.414C112.828 145.959 112.27 138.485 112.27 138.485C112.27 138.485 125.384 140.453 129.884 147.095C134.385 153.737 131.775 184.788 131.775 184.788C131.775 184.788 128.806 197.94 98.9666 195.338C85.1245 194.127 85.1056 187.513 84.7841 181.468C84.6253 177.15 84.8246 172.828 85.3798 168.543C80.7194 168.154 76.2026 166.739 72.1523 164.399C72.1523 164.399 74.4026 146.499 81.9855 142.355C89.5684 138.211 98.5506 137.898 98.5506 137.898Z" fill="#FF5C9E"/>
<path d="M72.1523 161.911C74.3648 163.727 80.9454 166.206 87.2803 166.727" stroke="#1E1991" stroke-width="0.5" stroke-miterlimit="10"/>
<path d="M129.829 147.095C126.992 142.96 120.875 140.633 116.592 139.469C124.099 145.42 126.264 149.044 127.285 152.507C128.061 155.127 130.245 153.737 131.559 152.507C131.34 150.607 130.753 148.769 129.829 147.095Z" fill="#575FCC"/>
<path d="M118 173.35L106.711 163.784L96.547 175.327L85.0781 185.593C85.3236 188.109 86.5499 190.427 88.4913 192.045C97.2088 188.431 99.6482 171.883 110.417 168.241L118 173.35Z" fill="#363CB3"/>
<path d="M124.335 296.091L123.285 307.274L131.643 306.025L134.726 294.199L125.176 294.568L124.335 296.091Z" fill="#FFC7E0" stroke="#262C97" stroke-width="0.5" stroke-miterlimit="10"/>
<path d="M146.052 292.808L151.593 302.572L157.729 296.744L153.484 285.295L145.863 291.076L146.052 292.808Z" fill="#FFC7E0" stroke="#262C97" stroke-width="0.5" stroke-miterlimit="10"/>
<path d="M122.473 255.492C127.493 264.367 148.474 297.898 148.474 297.898C150.205 297.777 151.877 297.221 153.337 296.282C154.796 295.342 155.995 294.05 156.822 292.524C156.822 292.524 149.656 260.355 141.978 247.64C134.301 234.924 122.473 255.492 122.473 255.492Z" fill="#363CB3"/>
<path d="M152.519 192.906C158.192 208.442 133.704 301.493 133.704 301.493C130.763 302.77 126.348 302.61 122.727 301.408L123.379 257.773C123.379 257.773 117.583 246.202 119.181 227.052C120.779 207.902 123.379 194.344 123.379 194.344L152.519 192.906Z" fill="#3B36B3"/>
<path d="M119.22 227.052C117.622 246.201 123.418 257.773 123.418 257.773C125.309 236.806 125.848 205.367 122.718 198.337C121.839 203.701 120.298 214.09 119.22 227.052Z" fill="#15154C"/>
<path d="M132.088 304.341C134.452 306.233 134.669 309.857 133.695 312.184H106.531C106.531 312.184 106.749 307.075 111.58 306.29C118.482 305.164 120.846 302.43 120.846 302.43L123.588 303.556L122.784 305.173C126.207 306.044 129.828 305.921 132.088 304.341Z" fill="#FF5C9E"/>
<path d="M103.213 312.563L134.887 312.487L134.386 308.892L112.091 309.942L110.815 306.375C105.671 307.35 102.022 309.157 103.213 312.563Z" fill="#FABF48"/>
<path d="M114.483 308.305C114.536 307.143 114.203 305.995 113.537 305.041" stroke="#1E1991" stroke-width="0.5" stroke-miterlimit="10"/>
<path d="M117.611 307.766C117.578 307.051 117.397 306.351 117.079 305.709C116.762 305.068 116.315 304.499 115.768 304.038" stroke="#1E1991" stroke-width="0.5" stroke-miterlimit="10"/>
<path d="M120.684 306.375C120.358 304.885 119.471 303.577 118.207 302.723" stroke="#1E1991" stroke-width="0.5" stroke-miterlimit="10"/>
<path d="M157.124 295.116C160.159 295.324 162.4 298.144 162.939 300.623L147.471 311.437L138.895 311.513C138.895 311.513 135.614 307.974 140.465 306.281C147.234 303.925 146.809 299.989 146.809 299.989L149.702 299.336L149.967 301.124C153.286 299.885 156.188 297.699 157.124 295.116Z" fill="#FF5C9E"/>
<path d="M140.466 306.28L142.858 309.289C143.94 309.519 145.06 309.512 146.14 309.271C147.219 309.029 148.235 308.558 149.117 307.889C152.388 305.59 161.701 297.898 161.701 297.898L163.725 300.736L147.472 311.427L137.809 311.503C135.956 309.053 136.854 307.435 140.466 306.28Z" fill="#FABF48"/>
<path d="M145.314 307.283C144.787 306.243 143.929 305.408 142.875 304.909" stroke="#1E1991" stroke-width="0.5" stroke-miterlimit="10"/>
<path d="M147.792 305.306C147.417 304.694 146.919 304.166 146.33 303.755C145.741 303.345 145.073 303.061 144.369 302.922" stroke="#1E1991" stroke-width="0.5" stroke-miterlimit="10"/>
<path d="M149.816 302.6C148.817 301.45 147.41 300.735 145.893 300.604" stroke="#1E1991" stroke-width="0.5" stroke-miterlimit="10"/>
<path d="M126.094 130.689C124.997 128.645 127.333 122.921 133.8 124.776C140.267 126.63 141.439 132.752 142.413 137.728C143.387 142.705 155.357 142.705 157.371 153.301C159.385 163.898 152.644 167.105 144.815 165.97C136.986 164.835 129.498 144.37 129.498 144.37L126.094 130.689Z" fill="#15154C"/>
<path d="M131.53 124.653C129.64 124.653 127.181 124.993 125.668 127.917C124.156 130.84 125.668 132.733 125.668 132.733" stroke="#1E1991" stroke-width="0.5" stroke-miterlimit="10" stroke-linecap="round"/>
<path d="M142.412 138.22C145.428 141.938 153.758 142.004 157.72 150.368C161.398 158.193 154.997 164.693 152.888 164.693" stroke="#1E1991" stroke-width="0.5" stroke-miterlimit="10" stroke-linecap="round"/>
<path d="M133.345 138.797L135.179 150.35C136.055 150.38 136.909 150.627 137.666 151.069C139.15 151.835 129.43 166.945 129.43 166.945C129.43 166.945 123.389 167.484 123.389 164.929C123.389 162.375 128.608 150.047 128.608 150.047L128.542 139.251L131.378 136.527L133.345 138.797Z" fill="#FFC7E0" stroke="#262C97" stroke-width="0.5" stroke-miterlimit="10"/>
<path d="M125.101 163.094C130.632 163.33 135.747 150.397 135.747 150.397C136.79 150.326 137.837 150.474 138.82 150.832L139.472 169.263L144.304 193.569C144.304 193.569 119.22 202.377 120.496 192.972C121.791 183.369 119.428 172.158 120.846 167.001C122.264 161.845 125.101 163.094 125.101 163.094Z" fill="#FABF48"/>
<path d="M142.365 183.861C139.86 181.174 124.968 169.783 124.968 169.783L121.186 169.433L120.373 171.126C120.373 172.347 120.373 173.681 120.449 175.1C129.299 181.146 138.735 191.553 144.086 192.367L142.365 183.861Z" fill="#363CB3"/>
<path d="M128.097 129.071C125.403 130.386 122.784 135.401 122.509 139.053C122.207 143.235 127.993 143.783 131.255 138.778C131.887 137.603 132.217 136.29 132.217 134.956C132.217 133.622 131.887 132.309 131.255 131.134C130.494 130.079 129.369 129.344 128.097 129.071Z" fill="#FFC7E0"/>
<path d="M131.257 138.778C131.888 137.603 132.219 136.29 132.219 134.956C132.219 133.622 131.888 132.309 131.257 131.134C130.493 130.077 129.364 129.342 128.09 129.071C125.395 130.386 123.296 134.663 122.502 139.053C121.934 142.184 126.463 143.424 129.839 140.415" stroke="#1E1991" stroke-width="0.5" stroke-miterlimit="10"/>
<path d="M127.417 132.969L126.68 134.379" stroke="#1E1991" stroke-width="0.5" stroke-linecap="round" stroke-linejoin="round"/>
<path d="M128.098 129.071C128.098 130.963 132.636 135.003 132.636 135.003L135.056 137.435C135.056 137.435 137.193 131.276 135.056 128.721C132.92 126.167 128.098 129.071 128.098 129.071Z" fill="#15154C"/>
<path d="M130.773 138.362C130.773 138.362 133.61 140.027 135.889 138.362C138.167 136.697 136.087 134.927 134.83 134.681C133.785 134.551 132.729 134.8 131.851 135.382L130.773 138.362Z" fill="#FFC7E0"/>
<path d="M130.773 138.362C130.773 138.362 133.79 140.254 135.889 138.362C136.223 138.114 136.474 137.77 136.608 137.375C136.742 136.98 136.752 136.554 136.636 136.154C136.521 135.753 136.286 135.398 135.963 135.135C135.64 134.871 135.245 134.713 134.83 134.681C133.789 134.604 132.749 134.849 131.851 135.382" stroke="#1E1991" stroke-width="0.5" stroke-miterlimit="10"/>
<path d="M136.296 135.524L132.637 136.186" stroke="#262C97" stroke-width="0.5" stroke-miterlimit="10"/>
<path d="M115.136 155.941C113.359 147.218 99.668 143.641 99.668 156.036C99.668 165.497 113.775 181.742 113.775 181.742C113.775 181.742 135.266 162.431 128.26 152.999C123.551 146.659 117.821 150.737 115.136 155.941Z" fill="#F9FAFE"/>
<path d="M115.287 155.875C113.641 146.896 99.7615 143.509 99.5251 156.263C99.3455 166.083 113.424 182.565 113.424 182.565C113.424 182.565 135.681 162.204 128.713 152.582C124.042 146.12 118.123 150.444 115.287 155.875Z" stroke="#1E1991" stroke-width="0.51" stroke-miterlimit="10"/>
<path d="M138.791 150.832C138.791 150.832 145.902 151.863 150.572 162.933C156.009 175.8 160.131 194.278 153.579 195.678C147.027 197.078 139.841 190.948 134.385 184.977C128.93 179.007 119.607 169.556 118.482 168.373C117.357 167.19 117.669 166.727 119.125 167.484C120.581 168.241 122.746 169.499 122.746 169.499C122.746 169.499 118.019 164.513 117.471 163.273C116.922 162.034 121.319 162.507 124.666 164.106C128.013 165.705 140.919 176.661 140.919 176.661L139.444 169.262C137.569 163.29 137.343 156.922 138.791 150.832Z" fill="#FFC7E0"/>
<path d="M138.791 150.832C138.791 150.832 145.902 151.863 150.572 162.933C156.009 175.8 160.131 194.278 153.579 195.678C147.027 197.078 139.841 190.948 134.385 184.977C128.93 179.007 119.607 169.556 118.482 168.373C117.357 167.19 117.669 166.727 119.125 167.484C120.581 168.241 122.746 169.499 122.746 169.499C122.746 169.499 118.019 164.513 117.471 163.273C116.922 162.034 121.319 162.507 124.666 164.106C128.013 165.705 140.919 176.661 140.919 176.661L139.444 169.262" stroke="#1E1991" stroke-width="0.5" stroke-miterlimit="10"/>
<path d="M146.392 182.215C144.758 180.185 142.924 178.324 140.918 176.661" stroke="#1E1991" stroke-width="0.5" stroke-miterlimit="10"/>
<path d="M117.434 163.018C118.634 163.51 124.052 168.174 124.894 168.922" stroke="#1E1991" stroke-width="0.5" stroke-miterlimit="10"/>
<path d="M118.992 162.573C120.694 162.791 125.611 166.178 126.887 167.38" stroke="#1E1991" stroke-width="0.5" stroke-miterlimit="10"/>
<path d="M72.9005 164.797C72.9005 164.797 68.8538 189.33 78.2426 191.383C87.6313 193.436 99.7999 176.538 102.334 173.529C104.868 170.521 111.732 167.853 111.789 167.361C111.845 166.869 106.579 168.07 106.579 168.07C106.579 168.07 113.916 161.078 113.33 160.369C112.744 159.659 101.464 162.564 101.464 162.564L100.689 160.899C100.689 160.899 98.7976 163.396 95.5451 167.067C85.589 178.421 82.0056 178.582 85.2959 168.543C80.9403 168.215 76.7093 166.936 72.9005 164.797Z" fill="#FFC7E0"/>
<path d="M100.706 160.899C100.706 160.899 98.8149 163.397 95.5624 167.068C85.6063 178.421 82.0229 178.582 85.3132 168.544" stroke="#1E1991" stroke-width="0.5" stroke-miterlimit="10"/>
<path d="M72.9005 164.797C72.9005 164.797 68.8538 189.33 78.2426 191.383C87.6313 193.436 99.7999 176.538 102.334 173.529C104.868 170.521 111.732 167.853 111.789 167.361C111.845 166.869 106.579 168.07 106.579 168.07C106.579 168.07 113.916 161.078 113.33 160.369C112.744 159.659 101.464 162.564 101.464 162.564" stroke="#1E1991" stroke-width="0.5" stroke-miterlimit="10"/>
<path d="M105.33 166.178C107.58 163.803 112.894 161.391 112.894 161.391" stroke="#1E1991" stroke-width="0.5" stroke-miterlimit="10"/>
<path d="M103.004 164.324C105.197 162.579 107.718 161.293 110.417 160.539" stroke="#1E1991" stroke-width="0.5" stroke-miterlimit="10"/>
<path d="M151.017 170.067C150.96 169.953 145.712 166.793 145.854 166.008C145.996 165.223 151.896 166.15 155.498 170.057C159.28 174.154 158.77 180.294 156.444 182.187C153.704 180.523 151.166 178.548 148.88 176.302C145.05 172.517 141.703 171.959 142.488 170.824C144.171 168.458 151.017 170.067 151.017 170.067Z" fill="#FFC7E0" stroke="#262C97" stroke-width="0.5" stroke-miterlimit="10"/>
<path d="M142.715 171.685C145.518 172.059 148.273 172.734 150.931 173.7" stroke="#1E1991" stroke-width="0.5" stroke-miterlimit="10"/>
<path d="M151.073 176.538C149.549 175.649 147.97 174.855 146.346 174.164" stroke="#1E1991" stroke-width="0.5" stroke-miterlimit="10"/>
<path d="M123.409 255.53C123.249 260.091 122.596 294.407 122.681 301.105" stroke="#1E1991" stroke-width="0.5" stroke-miterlimit="10"/>
</svg>
