<svg width="220" height="314" viewBox="0 0 220 314" fill="none" xmlns="http://www.w3.org/2000/svg">
<path d="M90.4687 84.2638C90.4629 84.7659 90.3083 85.255 90.0244 85.6692C89.7404 86.0833 89.34 86.4039 88.8737 86.5903C88.4075 86.7767 87.8964 86.8206 87.4052 86.7163C86.914 86.612 86.4648 86.3644 86.1145 86.0046C85.7641 85.6449 85.5285 85.1892 85.4373 84.6954C85.3461 84.2016 85.4035 83.6919 85.6022 83.2307C85.801 82.7696 86.1321 82.3778 86.5536 82.105C86.9752 81.8322 87.4682 81.6906 87.9703 81.6982C88.6402 81.7121 89.2778 81.989 89.7452 82.469C90.2127 82.9491 90.4726 83.5937 90.4687 84.2638Z" fill="white"/>
<path d="M115.338 72.067L82.1249 71.5485C80.5117 71.5257 78.955 72.1425 77.7954 73.2643C76.6357 74.386 75.9674 75.9213 75.9366 77.5344L75.7423 91.0698C75.7194 92.683 76.3363 94.2396 77.458 95.3993C78.5798 96.5589 80.115 97.2272 81.7281 97.258L106.689 97.6467C105.498 100.524 104.459 103.463 103.578 106.451C103.808 106.417 110.379 100.844 114.029 97.7484L114.97 97.7723C116.568 97.7863 118.109 97.1742 119.261 96.067C120.414 94.9598 121.088 93.4455 121.138 91.848L121.347 78.3105C121.367 77.5047 121.228 76.7028 120.936 75.9514C120.644 75.1999 120.206 74.5139 119.647 73.9331C119.088 73.3523 118.42 72.8882 117.68 72.5679C116.94 72.2476 116.144 72.0773 115.338 72.067Z" fill="#739EF1"/>
<path d="M100.697 84.3186C100.691 84.8207 100.537 85.3098 100.253 85.724C99.9688 86.1381 99.5683 86.4587 99.1021 86.6451C98.6358 86.8315 98.1247 86.8754 97.6335 86.7711C97.1423 86.6668 96.6931 86.4192 96.3428 86.0594C95.9925 85.6997 95.7568 85.244 95.6656 84.7502C95.5744 84.2564 95.6318 83.7467 95.8306 83.2855C96.0293 82.8244 96.3604 82.4326 96.782 82.1598C97.2035 81.887 97.6966 81.7454 98.1987 81.753C98.5315 81.7561 98.8605 81.8251 99.1666 81.956C99.4727 82.0868 99.7499 82.277 99.9821 82.5155C100.214 82.754 100.397 83.0361 100.52 83.3456C100.642 83.655 100.703 83.9857 100.697 84.3186Z" fill="white"/>
<path d="M88.9831 84.4196C88.9774 84.9218 88.8228 85.4109 88.5388 85.825C88.2549 86.2392 87.8544 86.5598 87.3882 86.7462C86.9219 86.9326 86.4108 86.9765 85.9196 86.8722C85.4284 86.7679 84.9792 86.5202 84.6289 86.1605C84.2786 85.8007 84.0429 85.3451 83.9517 84.8513C83.8606 84.3575 83.918 83.8477 84.1167 83.3866C84.3154 82.9255 84.6465 82.5337 85.0681 82.2609C85.4897 81.988 85.9827 81.8464 86.4848 81.854C86.8177 81.8571 87.1467 81.9262 87.4527 82.057C87.7588 82.1879 88.036 82.378 88.2683 82.6165C88.5005 82.855 88.6832 83.1372 88.8059 83.4466C88.9286 83.7561 88.9889 84.0868 88.9831 84.4196Z" fill="white"/>
<path d="M111.64 84.5754C111.637 85.0816 111.484 85.5755 111.199 85.9942C110.915 86.413 110.512 86.7377 110.042 86.9269C109.573 87.1162 109.058 87.1615 108.562 87.057C108.067 86.9526 107.614 86.7032 107.261 86.3405C106.908 85.9779 106.67 85.5183 106.579 85.0203C106.488 84.5224 106.547 84.0085 106.748 83.5442C106.95 83.0798 107.285 82.686 107.711 82.4128C108.138 82.1395 108.635 81.9992 109.142 82.0097C109.811 82.0236 110.449 82.3006 110.917 82.7806C111.384 83.2607 111.644 83.9053 111.64 84.5754Z" fill="white"/>
<path d="M114.106 71.4505L80.8925 70.9321C79.2793 70.9092 77.7226 71.5261 76.563 72.6478C75.4033 73.7695 74.735 75.3048 74.7042 76.9179L74.5099 90.4533C74.487 92.0666 75.1039 93.6232 76.2256 94.7828C77.3473 95.9425 78.8826 96.6108 80.4957 96.6416L105.457 97.0303C104.265 99.908 103.227 102.847 102.346 105.834C102.575 105.801 109.146 100.228 112.797 97.1319L113.738 97.1558C115.336 97.1698 116.876 96.5577 118.029 95.4506C119.182 94.3434 119.855 92.8291 119.906 91.2316L120.114 77.6941C120.135 76.8883 119.995 76.0864 119.704 75.3349C119.412 74.5835 118.974 73.8975 118.415 73.3167C117.856 72.7359 117.187 72.2718 116.447 71.9514C115.708 71.6311 114.912 71.4609 114.106 71.4505V71.4505Z" stroke="#262C97" stroke-width="0.5" stroke-miterlimit="10"/>
<path d="M129.334 165.338C124.587 187.797 156.893 271.494 166.829 288.041H129.226C120.154 262.987 113.338 234.393 108.006 203.463C104.032 232.947 103.852 261.199 108.006 288.041H74.2158C74.2158 288.041 74.6384 192.737 90.7243 169.309C106.81 145.88 129.334 165.338 129.334 165.338Z" fill="#575FCC"/>
<path d="M127.671 201.074C131.708 199.753 137.014 225.428 149.853 249.224C141.509 227.161 133.03 200.93 130.018 182.586L112.808 182.694C112.808 182.694 95.3826 156.355 87.3262 174.807C70.7727 212.725 105.426 263.553 105.426 263.553V263.508C104.363 243.457 105.228 223.35 108.007 203.464C110.857 219.993 114.13 235.848 117.951 250.85C117.933 249.611 114.094 205.53 127.671 201.074Z" fill="#363CB3"/>
<path d="M133.785 124.303L126.502 131.921L119.75 131.121C119.75 131.121 119.282 138.604 124.38 140.724C129.478 142.844 135.647 137.607 135.647 137.607L132.149 134.795L135.629 130.429L133.785 124.303Z" fill="#FFC7E0" stroke="#262C97" stroke-width="0.5" stroke-miterlimit="10"/>
<path d="M133.785 124.303C132.464 127.42 133.327 132.909 136.968 133.573C140.61 134.238 146.095 128.076 147.48 123.117C148.864 118.158 142.714 116.236 142.714 116.236L138.542 119.523L133.785 124.303Z" fill="#FFC7E0"/>
<path d="M133.471 129.746C133.956 131.642 135.089 133.232 136.95 133.573C140.547 134.238 146.095 128.076 147.48 123.117C148.864 118.158 142.714 116.236 142.714 116.236L138.542 119.523L133.785 124.303" stroke="#1E1991" stroke-width="0.5" stroke-miterlimit="10"/>
<path d="M140.196 123.279C140.016 123.94 140.104 124.645 140.44 125.242C140.777 125.839 141.335 126.279 141.994 126.468" stroke="#1E1991" stroke-width="0.5" stroke-miterlimit="10" stroke-linecap="round"/>
<path d="M139.297 127.609C138.893 127.941 138.146 127.707 137.634 127.088C137.121 126.468 137.031 125.695 137.436 125.363C137.841 125.03 138.587 125.264 139.1 125.884C139.612 126.504 139.702 127.258 139.297 127.609Z" fill="#FF5C9E"/>
<path d="M140.727 119.075C141.788 122.219 147.417 124.986 150.267 122.003C153.118 119.021 154.305 111.008 146.824 110.406C139.343 109.804 133.786 117.395 134.289 119.937C134.435 120.648 134.823 121.286 135.387 121.743C135.951 122.2 136.656 122.448 137.383 122.443L140.727 119.075Z" fill="#575FCC"/>
<path d="M150.869 112.274C148.424 109.965 143.263 108.618 138.038 112.22C133.228 115.526 134.442 120.062 134.846 120.736" stroke="#1E1991" stroke-width="0.5" stroke-miterlimit="10" stroke-linecap="round"/>
<path d="M143.361 121.832C146.454 124.626 150.555 124.303 152.209 121.347C153.863 118.392 149.116 120.206 149.116 120.206L143.361 121.832Z" stroke="#1E1991" stroke-width="0.5" stroke-miterlimit="10" stroke-linecap="round"/>
<path d="M136.42 122.784C136.357 119.937 134.388 118.419 133.183 119.344C131.978 120.269 131.385 123.764 133.902 124.931L136.42 122.784Z" fill="#FFC7E0"/>
<path d="M136.42 122.784C136.357 119.937 134.388 118.419 133.183 119.344C131.978 120.269 131.385 123.764 133.902 124.931" stroke="#1E1991" stroke-width="0.5" stroke-miterlimit="10"/>
<path d="M134.801 122.488L133.183 119.344" stroke="#262C97" stroke-width="0.5" stroke-miterlimit="10"/>
<path d="M124.282 131.66C124.282 131.66 122.232 137.679 126.817 138.936C131.403 140.194 134.469 136.322 134.469 136.322C134.469 136.322 139.181 139.592 140.44 142.88C141.698 146.168 140.332 157.972 138.363 162.383C136.393 166.794 119.714 175.624 119.714 175.624L88.3516 153.66C88.3516 153.66 94.0972 133.663 104.294 129.782C111.442 127.007 124.282 131.66 124.282 131.66Z" fill="#FF5C9E"/>
<path d="M119.714 156.741C116.288 154.325 122.177 143.895 124.677 137.544C123.944 136.395 123.656 135.018 123.868 133.672L120.523 132.433L111.226 144.165L112.637 158.152C112.637 158.152 123.148 159.158 119.714 156.741Z" fill="#363CB3"/>
<path d="M161.434 278.816C163.889 276.121 163.008 270.731 161.434 271.368C160.625 271.71 161.066 278.816 161.066 278.816C160.292 275.537 157.954 271.764 155.239 272.967C152.901 274.001 155.167 278.142 160.634 278.995" stroke="#1E1991" stroke-width="0.5" stroke-miterlimit="10"/>
<path d="M140.079 288.041C140.079 288.041 147.677 286.757 151.211 284.286C154.744 281.816 161.722 278.043 161.722 278.043C168.349 278.941 171.864 282.4 172.763 288.041H140.079Z" fill="#15154C"/>
<path d="M140.079 288.041H172.763C172.63 287.218 172.428 286.407 172.161 285.616C165.597 285.805 155.401 286.191 146.085 286.568C144.115 287.179 142.109 287.671 140.079 288.041Z" fill="#FABF48"/>
<path d="M91.3102 280.469C86.4727 280.469 82.7502 276.076 84.6114 273.929C87.0931 271.072 91.0854 275.474 91.6788 279.714C91.9575 275.896 94.0436 271.8 96.9659 273.246C99.8881 274.692 96.786 279.939 92.3891 280.433" stroke="#1E1991" stroke-width="0.5" stroke-miterlimit="10"/>
<path d="M101.075 289.308C101.075 289.308 102.567 280.432 92.191 279.372C81.8147 278.312 78.8115 289.308 78.8115 289.308H101.075Z" fill="#15154C"/>
<path d="M78.8115 289.308H101.075C101.143 288.663 101.143 288.013 101.075 287.368C98.127 287.008 95.1604 286.828 92.191 286.829C87.6952 286.9 82.9746 287.341 79.342 287.727C79.1327 288.243 78.9555 288.771 78.8115 289.308Z" fill="#FABF48"/>
<path d="M143.361 138.002L139.333 147.471C139.333 147.471 126.151 158.592 127.671 158.152C128.867 157.765 144.755 148.926 146.355 148.18C149.997 146.455 148.981 138.047 148.981 138.047L143.361 138.002Z" fill="#FFC7E0" stroke="#262C97" stroke-width="0.5" stroke-miterlimit="10"/>
<path d="M152.469 129.333C149.511 128.058 143.918 129.953 140.439 131.759C136.959 133.565 140.439 139.511 146.733 138.694C149.358 138.344 152.389 135.559 152.955 133.304C153.286 131.966 153.113 130.553 152.469 129.333Z" fill="#FFC7E0"/>
<path d="M146.778 138.694C149.404 138.344 152.434 135.559 153 133.304C153.329 131.946 153.14 130.515 152.47 129.288C149.512 128.013 143.919 129.908 140.439 131.714C137.4 133.295 139.648 138.002 144.458 138.649" stroke="#1E1991" stroke-width="0.5" stroke-miterlimit="10"/>
<path d="M147.201 130.896C147.065 131.57 147.2 132.271 147.577 132.846C147.954 133.421 148.543 133.824 149.215 133.969" stroke="#1E1991" stroke-width="0.5" stroke-miterlimit="10" stroke-linecap="round"/>
<path d="M145.555 135.352C145.061 135.514 144.458 135.02 144.216 134.247C143.973 133.475 144.216 132.738 144.683 132.576C145.151 132.415 145.78 132.909 146.023 133.681C146.266 134.454 146.059 135.199 145.555 135.352Z" fill="#FF5C9E"/>
<path d="M150.042 128.92C149.206 130.304 149.925 135.388 150.473 137.005C151.022 138.622 146.994 139.7 145.456 142.745C143.919 145.791 142.948 148.962 145.852 150.462C148.756 151.962 152.146 155.466 151.328 159.347C150.509 163.227 147.884 171.995 153.89 178.966C159.897 185.937 174.463 183.817 175.524 167.584C176.585 151.351 163.835 148.782 160.418 145.872C157.001 142.961 155.077 140.94 155.922 136.816C157.361 130.25 152.955 126.468 150.042 128.92Z" fill="#15154C"/>
<path d="M150.042 128.92C150.042 128.92 150.869 126.71 154.106 127.923C157.343 129.136 157.703 133.573 157.91 135.244C157.981 136.907 158.472 138.525 159.336 139.948C160.201 141.371 161.411 142.552 162.855 143.383C167.153 145.881 171.334 146.411 174.841 148.333C177.38 149.685 179.508 151.696 181 154.154" stroke="#1E1991" stroke-width="0.5" stroke-miterlimit="10" stroke-linecap="round"/>
<path d="M170.399 178.571C177.646 173.459 181 154.154 163.512 148.028" stroke="#1E1991" stroke-width="0.5" stroke-miterlimit="10"/>
<path d="M146.751 137.975C146.751 137.975 147.38 141.452 150.348 142.144C153.315 142.835 153.279 139.907 152.604 138.712C151.971 137.761 151.012 137.075 149.907 136.781L146.751 137.975Z" fill="#FFC7E0"/>
<path d="M146.751 137.975C146.751 137.975 147.38 141.452 150.348 142.144C153.315 142.835 153.279 139.907 152.604 138.712C151.971 137.761 151.012 137.075 149.907 136.781" stroke="#1E1991" stroke-width="0.5" stroke-miterlimit="10"/>
<path d="M152.956 140.518L149.854 138.002" stroke="#262C97" stroke-width="0.5" stroke-miterlimit="10"/>
<path d="M84.1606 158.592C76.0682 159.643 43.2221 182.416 43.2221 182.416C37.1977 184.347 21.5075 185.524 23.3507 186.386C24.6005 186.97 47.9876 191.453 49.3093 191.498C50.6311 191.543 51.6292 188.3 51.6292 188.3C51.6292 188.3 74.3508 184.266 89.7264 173.423C105.102 162.581 84.1606 158.592 84.1606 158.592Z" fill="#FFC7E0" stroke="#262C97" stroke-width="0.5" stroke-miterlimit="10"/>
<path d="M103.367 156.355C100.058 149.474 93.5665 146.168 72.2295 146.958C50.8925 147.749 31.9563 148.27 30.7694 146.824C29.5825 145.377 24.6732 134.247 24.0078 133.349C23.3424 132.45 19.3681 138.254 22.5511 147.911C25.7342 157.568 29.1779 157.792 29.1779 157.792C29.549 157.361 30.0225 157.03 30.5551 156.829C31.0877 156.628 31.6623 156.564 32.2261 156.642C33.9794 157.002 51.2972 165.204 66.5378 166.237C81.7785 167.27 85.8787 165.338 85.8787 165.338L98.4669 171.959L108.537 161.628L103.367 156.355Z" fill="#FFC7E0" stroke="#262C97" stroke-width="0.5" stroke-miterlimit="10"/>
<path d="M31.4708 156.957C28.8902 152.699 28.2518 149.169 30.7695 146.824C28.9289 143.226 27.3338 139.507 25.9949 135.694C24.0797 129.352 19.7009 127.842 19.3682 128.938C20.8698 138.676 20.4921 146.474 23.1896 161.018C25.0688 160.595 28.7464 161.116 31.4708 156.957Z" fill="#FF5C9E"/>
<path d="M23.3417 135.622C22.8831 138.73 24.4476 141.012 26.165 144.794C27.3519 147.489 30.7687 151.082 30.7687 151.082C31.9915 150.301 33.7449 148.495 32.6839 146.779C29.5908 142.988 27.1361 140.311 25.9942 135.73L23.3417 135.622Z" fill="#FF5C9E"/>
<path d="M18.6934 128.507L22.4878 161.574L26.1923 160.622L22.4159 137.49L26.0125 135.693C24.403 130.429 22.0922 126.836 18.6934 128.507Z" fill="#FABF48"/>
<path d="M23.9355 139.952C25.2341 139.83 26.4552 139.28 27.4063 138.388" stroke="#1E1991" stroke-width="0.5" stroke-miterlimit="10"/>
<path d="M24.9336 143.338C25.7221 143.207 26.4749 142.914 27.1448 142.478C27.8148 142.042 28.3874 141.472 28.8269 140.805" stroke="#1E1991" stroke-width="0.5" stroke-miterlimit="10"/>
<path d="M26.876 146.545C28.4814 145.995 29.8119 144.846 30.5895 143.338" stroke="#1E1991" stroke-width="0.5" stroke-miterlimit="10"/>
<path d="M25.887 186.809C29.9158 188.07 34.2183 188.176 38.3044 187.114C43.0609 185.749 44.7693 183.934 44.7693 183.934C44.2837 182.569 40.7501 179.442 38.8349 180.116C34.456 182.308 29.9962 184.006 25.2666 184.123L25.887 186.809Z" fill="#FF5C9E"/>
<path d="M51.6295 189.028C45.812 188.893 41.8017 186.207 41.2353 182.209C41.2353 182.209 23.5399 183.476 21.0402 184.734C20.3393 185.037 19.7255 185.511 19.2544 186.112C18.7833 186.713 18.47 187.422 18.3428 188.174C18.3428 188.174 24.3222 189.315 35.3278 191.498C46.3335 193.681 51.6025 195.091 51.6025 195.091L51.6295 189.028Z" fill="#FF5C9E"/>
<path d="M28.0001 183.439C21.6341 182.541 18.4331 184.104 18.3701 188.174L51.6389 195.118V192.072L28.4586 186.979L28.0001 183.439Z" fill="#FABF48"/>
<path d="M37.1894 183.467L36.3262 181.293" stroke="#1E1991" stroke-width="0.5" stroke-miterlimit="10"/>
<path d="M33.611 184.266L33.2783 182.523" stroke="#1E1991" stroke-width="0.5" stroke-miterlimit="10"/>
<path d="M30.6348 184.796V183.144" stroke="#1E1991" stroke-width="0.5" stroke-miterlimit="10"/>
<path d="M130.567 152.349C137.014 150.363 148.334 143.743 153.621 149.016C158.908 154.289 145.097 171.294 137.014 181.49C128.93 191.686 125.621 198.433 126.152 206.105C126.682 213.776 133.84 237.34 133.84 237.34C133.84 237.34 128.175 231.384 117.43 226.362C106.685 221.34 92.1369 216.669 88.3514 199.475C82.9565 175.04 100.589 151.908 100.589 151.908C103.681 155.417 107.983 157.63 112.638 158.107C120.191 158.718 130.567 152.349 130.567 152.349Z" fill="#FABF48"/>
<path d="M154.789 151.612C154.681 156.104 145.33 163.218 145.33 163.218L147.128 168.33C151.606 161.979 155.221 155.637 154.789 151.612Z" fill="#363CB3"/>
<path d="M107.341 162.23C106.793 172.831 113.24 172.947 118.473 172.615C128.876 171.959 137.877 166.003 137.877 166.003L131.708 167.467L107.341 162.23Z" fill="#363CB3"/>
<path d="M132.41 151.603C134.646 156.416 135.276 161.82 134.208 167.018" stroke="#1E1991" stroke-width="0.5" stroke-miterlimit="10"/>
<path d="M102.567 153.597C102.567 153.597 91.3727 170.495 92.9012 192.666C94.0252 209.015 105.157 216.651 117.277 222.895C130.396 229.668 132.86 234.052 132.86 234.052" stroke="#1E1991" stroke-width="0.5" stroke-miterlimit="10"/>
<path d="M125.892 168.752C127.75 173.819 131.625 177.852 137.518 180.853" stroke="#1E1991" stroke-width="0.5" stroke-miterlimit="10"/>
<path d="M123.751 169.04C124.58 172.125 126.129 174.971 128.27 177.344C130.411 179.717 133.083 181.55 136.069 182.694" stroke="#1E1991" stroke-width="0.5" stroke-miterlimit="10"/>
<path d="M111.846 128.956C111.846 128.956 115.82 126.045 123.175 126.468C130.53 126.89 127.347 130.528 126.484 131.921C125.621 133.313 116.216 148.09 115.55 151.576C114.885 155.061 116.081 155.448 118.599 155.43C121.116 155.412 130.566 152.582 130.566 152.582C132.283 157.335 132.724 162.455 131.843 167.432C131.843 167.432 109.49 172.821 104.221 166.057C96.7401 156.472 117.34 129.756 117.34 129.756C115.529 129.364 113.693 129.097 111.846 128.956Z" fill="#FFC7E0"/>
<path d="M131.843 167.674C131.843 167.674 109.499 172.795 104.221 166.057C96.7579 156.508 116.971 131.202 117.34 129.756" stroke="#1E1991" stroke-width="0.5" stroke-miterlimit="10"/>
<path d="M111.847 128.956C111.901 128.21 115.812 126.036 123.176 126.468C130.54 126.899 127.348 130.528 126.485 131.921C125.622 133.313 116.217 148.09 115.551 151.576C114.886 155.062 116.082 155.448 118.599 155.43C121.117 155.412 130.567 152.582 130.567 152.582" stroke="#1E1991" stroke-width="0.5" stroke-miterlimit="10"/>
<path d="M108.474 128.92C108.474 128.92 104.626 126.162 99.0598 130.394C93.494 134.625 93.4311 140.06 94.6899 142.773C95.9487 145.486 95.8138 146.016 96.6141 146.366C97.4143 146.716 100.121 144.111 100.849 142.063C101.577 140.015 102.584 137.571 102.584 137.571C102.584 137.571 103.565 140.347 104.383 138.47C105.243 135.094 106.623 131.872 108.474 128.92Z" fill="#FFC7E0" stroke="#262C97" stroke-width="0.5" stroke-miterlimit="10"/>
<path d="M104.49 133.214C103.581 134.521 102.933 135.991 102.584 137.544" stroke="#1E1991" stroke-width="0.5" stroke-miterlimit="10"/>
<path d="M99.456 136.152C98.9975 137.679 98.5029 145.324 98.5029 145.324" stroke="#1E1991" stroke-width="0.5" stroke-miterlimit="10"/>
<path d="M96.6863 136.152C95.949 138.532 95.7871 145.324 95.7871 145.324" stroke="#1E1991" stroke-width="0.5" stroke-miterlimit="10"/>
<path d="M162.136 117.107C162.136 117.107 163.377 111.987 160.149 114.205C158.153 115.571 156.795 120.853 156.795 120.853C156.795 120.853 164.123 121.509 165.436 118.571C166.218 116.829 162.136 117.107 162.136 117.107Z" fill="#FF5C9E"/>
<path d="M148.532 166.237C148.631 166.093 148.919 158.457 149.854 158.152C150.789 157.846 153.352 164.844 151.257 171.133C149.063 177.727 142.049 180.889 138.597 179.532C138.764 175.533 139.392 171.566 140.467 167.71C142.265 161.269 140.872 157.263 142.58 157.433C146.159 157.757 148.532 166.237 148.532 166.237Z" fill="#FFC7E0" stroke="#262C97" stroke-width="0.5" stroke-miterlimit="10"/>
<path d="M141.752 158.152C142.516 159.481 144.306 166.165 144.503 168.357" stroke="#1E1991" stroke-width="0.5" stroke-miterlimit="10"/>
<path d="M141.527 170.172C141.576 167.974 141.492 165.775 141.275 163.587" stroke="#1E1991" stroke-width="0.5" stroke-miterlimit="10"/>
<path d="M79.2519 167.674C81.0952 169.606 89.9878 172.822 90.7251 171.034C93.8182 163.542 91.7322 155.062 90.4464 154.478C86.2114 152.582 80.223 161.664 80.223 161.664C80.223 161.664 81.284 153.993 80.4028 153.642C79.5217 153.292 74.5763 162.778 79.2519 167.674Z" fill="#FFC7E0" stroke="#262C97" stroke-width="0.5" stroke-miterlimit="10"/>
<path d="M83.2979 162.23C85.285 157.46 86.3999 155.493 88.0904 154.388" stroke="#1E1991" stroke-width="0.5" stroke-miterlimit="10"/>
<path d="M86.6426 162.886C87.9823 159.643 90.1133 155.87 90.446 154.478" stroke="#1E1991" stroke-width="0.5" stroke-miterlimit="10"/>
<path d="M89.1875 164.44C91.0488 161.853 91.6152 156.732 91.6152 156.732" stroke="#1E1991" stroke-width="0.5" stroke-miterlimit="10"/>
<path d="M76.6134 99.4742C76.6191 99.9763 76.7737 100.465 77.0577 100.88C77.3416 101.294 77.742 101.614 78.2083 101.801C78.6746 101.987 79.1857 102.031 79.6769 101.927C80.1681 101.822 80.6173 101.575 80.9676 101.215C81.3179 100.855 81.5536 100.4 81.6448 99.9059C81.7359 99.4121 81.6785 98.9023 81.4798 98.4412C81.2811 97.98 80.95 97.5883 80.5284 97.3154C80.1068 97.0426 79.6138 96.901 79.1117 96.9086C78.4418 96.9225 77.8043 97.1994 77.3368 97.6795C76.8693 98.1595 76.6095 98.8042 76.6134 99.4742Z" fill="white"/>
<path d="M51.7438 87.2774L84.9571 86.759C86.5704 86.7361 88.127 87.353 89.2866 88.4747C90.4463 89.5964 91.1146 91.1317 91.1454 92.7448L91.3398 106.28C91.3626 107.893 90.7457 109.45 89.624 110.61C88.5023 111.769 86.967 112.438 85.3539 112.468L60.3927 112.857C61.5844 115.735 62.6229 118.674 63.5038 121.661C63.2742 121.628 56.7035 116.055 53.053 112.959L52.1119 112.983C50.5137 112.997 48.9734 112.385 47.8207 111.277C46.668 110.17 45.9944 108.656 45.944 107.058L45.7353 93.521C45.7147 92.7152 45.8543 91.9133 46.1461 91.1618C46.4378 90.4104 46.8758 89.7244 47.4348 89.1436C47.9938 88.5628 48.6625 88.0987 49.4022 87.7783C50.1419 87.458 50.9378 87.2878 51.7438 87.2774Z" fill="#FABF48"/>
<path d="M66.385 99.529C66.3908 100.031 66.5454 100.52 66.8293 100.934C67.1133 101.349 67.5137 101.669 67.98 101.856C68.4462 102.042 68.9573 102.086 69.4485 101.982C69.9397 101.877 70.3889 101.63 70.7392 101.27C71.0896 100.91 71.3252 100.454 71.4164 99.9607C71.5076 99.4669 71.4502 98.9571 71.2515 98.496C71.0527 98.0348 70.7216 97.6431 70.3001 97.3702C69.8785 97.0974 69.3855 96.9558 68.8834 96.9634C68.5505 96.9665 68.2215 97.0355 67.9154 97.1664C67.6093 97.2973 67.3322 97.4874 67.0999 97.7259C66.8677 97.9644 66.6849 98.2465 66.5622 98.556C66.4395 98.8655 66.3793 99.1962 66.385 99.529Z" fill="white"/>
<path d="M78.0989 99.6301C78.1046 100.132 78.2593 100.621 78.5432 101.035C78.8271 101.45 79.2276 101.77 79.6938 101.957C80.1601 102.143 80.6712 102.187 81.1624 102.083C81.6536 101.978 82.1028 101.731 82.4531 101.371C82.8034 101.011 83.0391 100.556 83.1303 100.062C83.2215 99.568 83.1641 99.0582 82.9653 98.5971C82.7666 98.1359 82.4355 97.7441 82.0139 97.4713C81.5924 97.1985 81.0993 97.0569 80.5972 97.0645C80.2644 97.0676 79.9354 97.1366 79.6293 97.2675C79.3232 97.3984 79.046 97.5885 78.8138 97.827C78.5815 98.0655 78.3988 98.3476 78.2761 98.6571C78.1534 98.9666 78.0932 99.2972 78.0989 99.6301Z" fill="white"/>
<path d="M55.4421 99.7858C55.445 100.292 55.5985 100.786 55.883 101.205C56.1675 101.623 56.5701 101.948 57.0396 102.137C57.5091 102.327 58.0244 102.372 58.5197 102.267C59.0151 102.163 59.4681 101.914 59.8213 101.551C60.1745 101.188 60.4118 100.729 60.503 100.231C60.5942 99.7328 60.5353 99.219 60.3336 98.7546C60.132 98.2903 59.7967 97.8965 59.3705 97.6232C58.9444 97.35 58.4466 97.2097 57.9404 97.2202C57.2705 97.2341 56.633 97.511 56.1655 97.9911C55.6981 98.4711 55.4382 99.1158 55.4421 99.7858Z" fill="white"/>
<path d="M52.9763 86.661L86.1895 86.1425C87.8028 86.1197 89.3594 86.7365 90.5191 87.8583C91.6787 88.98 92.347 90.5153 92.3778 92.1284L92.5722 105.664C92.595 107.277 91.9781 108.834 90.8564 109.993C89.7347 111.153 88.1994 111.821 86.5863 111.852L61.6251 112.241C62.8168 115.118 63.8553 118.057 64.7362 121.045C64.5067 121.011 57.9359 115.438 54.2854 112.342L53.3444 112.366C51.7461 112.38 50.2059 111.768 49.0532 110.661C47.9004 109.554 47.2268 108.04 47.1764 106.442L46.9677 92.9045C46.9471 92.0987 47.0867 91.2968 47.3785 90.5454C47.6702 89.7939 48.1083 89.1079 48.6672 88.5271C49.2262 87.9463 49.8949 87.4822 50.6346 87.1619C51.3743 86.8416 52.1703 86.6713 52.9763 86.661V86.661Z" stroke="#262C97" stroke-width="0.5" stroke-miterlimit="10"/>
<path d="M193.807 22.1034C195.651 22.2536 197.113 23.7668 197.113 25.617V53.0544C197.126 56.1654 196.394 59.2347 194.979 62.0088C193.564 64.7828 191.506 67.1819 188.975 69.0077L170.613 80.7188C169.997 81.1017 169.286 81.3046 168.56 81.3046C167.834 81.3046 167.122 81.1017 166.506 80.7188L148.139 69.0077C145.608 67.1815 143.55 64.7824 142.134 62.0084C140.719 59.2345 139.988 56.1653 140 53.0544V25.6168C140 23.7666 141.462 22.2536 143.306 22.1031C155.448 21.1125 165.156 17.5833 168.511 13.0149C168.518 13.0054 168.529 13 168.541 13C168.553 13 168.564 13.0053 168.571 13.0148C171.966 17.5837 181.652 21.1132 193.807 22.1034Z" fill="#68D1A2"/>
<path d="M169.881 44.0906H166.957C165.696 44.089 164.486 43.5898 163.593 42.7025C162.7 41.8152 162.197 40.612 162.193 39.3563V38.7895C162.197 37.5338 162.7 36.3306 163.593 35.4433C164.486 34.5559 165.696 34.0568 166.957 34.0552H169.881C171.142 34.0568 172.352 34.5561 173.243 35.4436C174.135 36.3311 174.637 37.5344 174.639 38.7895V39.3563C174.637 40.6114 174.135 41.8147 173.243 42.7021C172.352 43.5896 171.142 44.089 169.881 44.0906ZM166.957 35.9489C166.2 35.9489 165.473 36.248 164.937 36.7805C164.4 37.313 164.098 38.0355 164.097 38.7895V39.3563C164.098 40.1103 164.4 40.8327 164.937 41.3653C165.473 41.8978 166.2 42.1969 166.957 42.1969H169.881C170.638 42.1969 171.364 41.8976 171.9 41.3649C172.435 40.8322 172.736 40.1097 172.736 39.3563V38.7895C172.736 38.0361 172.435 37.3136 171.9 36.7809C171.364 36.2482 170.638 35.9489 169.881 35.9489H166.957Z" fill="#F9FAFE"/>
<path d="M160.422 40.1912H176.229C176.823 40.1912 177.394 40.4261 177.814 40.8443C178.234 41.2626 178.47 41.8298 178.47 42.4213V50.0023C178.47 51.9425 177.696 53.8033 176.318 55.1757C174.94 56.5482 173.07 57.3201 171.121 57.3218H166.501C164.425 57.3218 162.434 56.5016 160.965 55.0415C159.496 53.5814 158.671 51.6008 158.669 49.5351V41.9291C158.671 41.4676 158.856 41.0256 159.185 40.6998C159.513 40.3741 159.958 40.1912 160.422 40.1912Z" fill="#F9FAFE"/>
<path fill-rule="evenodd" clip-rule="evenodd" d="M170.513 45.4941C170.889 46.5604 170.325 47.728 169.253 48.102C169.172 48.1304 169.09 48.1534 169.008 48.1712V51.821C169.008 51.9485 168.958 52.0708 168.871 52.161C168.783 52.2511 168.664 52.3018 168.54 52.3018C168.416 52.3018 168.297 52.2511 168.209 52.161C168.121 52.0708 168.072 51.9485 168.072 51.821V48.1561C167.425 47.994 166.869 47.522 166.632 46.8486C166.256 45.7823 166.82 44.6147 167.892 44.2407C168.963 43.8666 170.137 44.4278 170.513 45.4941Z" fill="#68D1A2"/>
<path d="M194.285 24.0592C196.421 24.247 198.113 25.9986 198.113 28.1427V55.0544C198.126 58.1654 197.394 61.2347 195.979 64.0088C194.564 66.7828 192.506 69.1819 189.975 71.0077L171.613 82.7188C170.997 83.1017 170.286 83.3046 169.56 83.3046C168.834 83.3046 168.122 83.1017 167.506 82.7188L149.139 71.0077C146.608 69.1815 144.55 66.7824 143.134 64.0084C141.719 61.2345 140.988 58.1653 141 55.0544V28.1425C141 25.9985 142.692 24.2469 144.828 24.0588C156.726 23.0108 166.204 19.5176 169.511 15.0149C169.518 15.0054 169.529 15 169.541 15V15C169.553 15 169.564 15.0053 169.571 15.0148C172.918 19.518 182.375 23.0116 194.285 24.0592Z" stroke="#262C97" stroke-width="0.5" stroke-miterlimit="10"/>
<path d="M169.881 44.0906H166.957C165.696 44.089 164.486 43.5898 163.593 42.7025C162.7 41.8152 162.197 40.612 162.193 39.3563V38.7895C162.197 37.5338 162.7 36.3306 163.593 35.4433C164.486 34.5559 165.696 34.0568 166.957 34.0552H169.881C171.142 34.0568 172.352 34.5561 173.243 35.4436C174.135 36.3311 174.637 37.5344 174.639 38.7895V39.3563C174.637 40.6114 174.135 41.8147 173.243 42.7021C172.352 43.5896 171.142 44.089 169.881 44.0906ZM166.957 35.9489C166.2 35.9489 165.473 36.248 164.937 36.7805C164.4 37.313 164.098 38.0355 164.097 38.7895V39.3563C164.098 40.1103 164.4 40.8327 164.937 41.3653C165.473 41.8978 166.2 42.1969 166.957 42.1969H169.881C170.638 42.1969 171.364 41.8976 171.9 41.3649C172.435 40.8322 172.736 40.1097 172.736 39.3563V38.7895C172.736 38.0361 172.435 37.3136 171.9 36.7809C171.364 36.2482 170.638 35.9489 169.881 35.9489H166.957Z" fill="#F9FAFE"/>
<path d="M160.422 40.1912H176.229C176.823 40.1912 177.394 40.4261 177.814 40.8443C178.234 41.2626 178.47 41.8298 178.47 42.4213V50.0023C178.47 51.9425 177.696 53.8033 176.318 55.1757C174.94 56.5482 173.07 57.3201 171.121 57.3218H166.501C164.425 57.3218 162.434 56.5016 160.965 55.0415C159.496 53.5814 158.671 51.6008 158.669 49.5351V41.9291C158.671 41.4676 158.856 41.0256 159.185 40.6998C159.513 40.3741 159.958 40.1912 160.422 40.1912Z" fill="#F9FAFE"/>
<path fill-rule="evenodd" clip-rule="evenodd" d="M170.513 45.4941C170.889 46.5604 170.325 47.728 169.253 48.102C169.172 48.1304 169.09 48.1534 169.008 48.1712V51.821C169.008 51.9485 168.958 52.0708 168.871 52.161C168.783 52.2511 168.664 52.3018 168.54 52.3018C168.416 52.3018 168.297 52.2511 168.209 52.161C168.121 52.0708 168.072 51.9485 168.072 51.821V48.1561C167.425 47.994 166.869 47.522 166.632 46.8486C166.256 45.7823 166.82 44.6147 167.892 44.2407C168.963 43.8666 170.137 44.4278 170.513 45.4941Z" fill="#68D1A2"/>
</svg>
