<svg width="240" height="276" viewBox="0 0 240 276" fill="none" xmlns="http://www.w3.org/2000/svg">
<path d="M100.332 129.102C92.6941 135.112 103.387 160.057 114.583 169.422C125.778 178.786 136.406 160.363 136.406 160.363L100.332 129.102Z" fill="#FF5C9E"/>
<path d="M175.174 171.957C174.28 176.098 173.614 178.327 171.192 180.95C168.769 183.572 160.073 178.644 160.04 178.524C160.007 178.404 159.178 169.783 159.647 169.422C160.117 169.061 167.34 166.144 167.34 166.144L175.174 171.957Z" fill="#FFC7E0" stroke="#262C97" stroke-width="0.5" stroke-miterlimit="10"/>
<path d="M92.3121 205.436L84.6631 216.614L93.5669 221.684L103.78 210.353L95.9783 205.939L92.3121 205.436Z" fill="#FFC7E0" stroke="#262C97" stroke-width="0.5" stroke-miterlimit="10"/>
<path d="M118.642 161.74C108.593 164.854 90.8506 206.266 90.8506 206.266C92.0181 210.134 95.6844 212.822 100.573 214.811C100.573 214.811 120.606 192.673 126.531 185.309C132.456 177.944 126.531 160.768 126.531 160.768L118.642 161.74Z" fill="#363CB3"/>
<path d="M116.263 172.077C107.064 191.45 105.264 201 104.053 211.009C110.054 204.343 122.177 190.794 126.563 185.364C132.499 178.021 124.283 158.954 124.283 158.954C121.118 163.007 118.427 167.41 116.263 172.077Z" fill="#363CB3"/>
<path d="M94.5271 220.154C95.3891 224.165 94.2543 228.131 91.5701 229.617L65.0879 208.725C65.0879 208.725 69.1142 204.027 74.2972 206.9C81.7061 211.02 85.9943 210.178 85.9943 210.178L87.762 213.303L85.787 214.243C88.373 217.63 91.21 219.969 94.5271 220.154Z" fill="#FF5C9E"/>
<path d="M62.1641 206.54L91.9525 230.72L94.233 226.951L72.4754 210.91L74.014 206.54C68.4491 203.502 63.6589 202.409 62.1641 206.54Z" fill="#FABF48"/>
<path d="M75.9238 211.533C76.8299 210.451 77.3518 209.098 77.4078 207.687" stroke="#1E1991" stroke-width="0.5" stroke-miterlimit="10"/>
<path d="M79.2949 213.369C79.8004 212.662 80.1528 211.858 80.3294 211.008C80.5061 210.157 80.5031 209.279 80.3206 208.43" stroke="#1E1991" stroke-width="0.5" stroke-miterlimit="10"/>
<path d="M83.2666 214.331C84.0724 212.671 84.2016 210.763 83.6267 209.009" stroke="#1E1991" stroke-width="0.5" stroke-miterlimit="10"/>
<path d="M143.029 87.6248C146.848 101.917 144.666 105.916 157.465 105.402C170.264 104.889 161.131 89.0124 161.131 89.0124L143.029 87.6248Z" fill="#15154C"/>
<path d="M149.87 88.1711L147.186 101.491C147.186 101.491 153.297 101.086 154.028 101.818C154.759 102.551 142.898 118.405 136.569 113.597C130.241 108.79 133.852 96.1803 133.852 96.1803L138.435 98.6826L141.861 90.6624L149.87 88.1711Z" fill="#FFC7E0" stroke="#262C97" stroke-width="0.5" stroke-miterlimit="10"/>
<path d="M145.004 76.447C138.206 76.6874 136.373 84.4562 137.224 90.5861C138.021 96.3881 144.208 96.4865 148.627 89.7338C150.46 86.9257 150.416 81.8776 148.889 79.6485C147.901 78.2542 146.561 77.1491 145.004 76.447Z" fill="#FFC7E0"/>
<path d="M148.626 89.7338C150.459 86.9257 150.415 81.8776 148.888 79.6485C148.033 78.3419 146.794 77.3338 145.342 76.7639C138.544 76.9934 136.372 84.4126 137.223 90.5861C137.823 94.9568 141.446 96.0494 145.091 93.5254" stroke="#1E1991" stroke-width="0.5" stroke-miterlimit="10"/>
<path d="M143.738 84.4456C144.08 85.1789 144.697 85.7476 145.455 86.0279C146.213 86.3082 147.051 86.2775 147.786 85.9425" stroke="#1E1991" stroke-width="0.5" stroke-miterlimit="10" stroke-linecap="round"/>
<path d="M141.152 84.1615C140.39 84.4282 139.552 84.3827 138.823 84.0349C138.094 83.6871 137.531 83.065 137.257 82.304" stroke="#1E1991" stroke-width="0.5" stroke-miterlimit="10" stroke-linecap="round"/>
<path d="M144.829 77.0592C145.069 80.3372 147.142 82.3259 150.11 83.7572C150.11 83.7572 147.841 93.3617 155.435 103.578C163.03 113.795 183.63 118.635 194.4 106.135C199.856 99.8084 197.783 87.4395 180.215 86.1392C171.486 85.4946 162.266 82.2057 158.763 77.9552C148.419 65.4005 137.562 72.022 138.424 81.3315C140.941 80.5883 143.174 79.0987 144.829 77.0592Z" fill="#15154C"/>
<path d="M152.206 96.9893C157.051 108.582 164.645 114.417 177.302 114.734C189.96 115.051 194.259 106.189 195.296 103.064" stroke="#1E1991" stroke-width="0.5" stroke-miterlimit="10" stroke-linecap="round"/>
<path d="M144.829 77.0588C143.433 81.0798 147.383 83.8661 150.111 83.7569" stroke="#1E1991" stroke-width="0.5" stroke-miterlimit="10" stroke-linecap="round"/>
<path d="M138.479 81.3315C139.211 65.9796 152.206 68.165 159.331 76.1851C166.02 83.7026 178.787 82.8613 178.787 82.8613" stroke="#1E1991" stroke-width="0.5" stroke-miterlimit="10" stroke-linecap="round"/>
<path d="M148.474 88.0729C148.474 88.0729 152.074 90.149 154.944 88.0183C157.814 85.8876 155.162 83.6477 153.558 83.3745C152.236 83.2148 150.901 83.5452 149.805 84.3033L148.474 88.0729Z" fill="#FFC7E0"/>
<path d="M148.474 88.0729C148.474 88.0729 152.074 90.149 154.944 88.0183C157.814 85.8876 155.162 83.6477 153.558 83.3745C152.236 83.2148 150.901 83.5452 149.805 84.3033" stroke="#1E1991" stroke-width="0.5" stroke-miterlimit="10"/>
<path d="M155.479 84.4124L150.853 85.2974" stroke="#262C97" stroke-width="0.5" stroke-miterlimit="10"/>
<path d="M87.5553 70.929C84.2819 68.6563 71.3299 57.0741 68.1328 54.0255C64.9358 50.977 63.2881 55.0417 66.6489 62.0347C70.0096 69.0278 72.8903 71.8687 72.8903 71.8687C72.8903 71.8687 65.7869 64.9958 65.7105 66.2524C65.6341 67.509 78.3242 79.9107 80.1246 80.8832C81.925 81.8557 87.5553 70.929 87.5553 70.929Z" fill="#FFC7E0" stroke="#262C97" stroke-width="0.5" stroke-miterlimit="10"/>
<path d="M82.5686 67.7713C78.4332 66.1323 72.5737 60.669 71.7226 60.822C70.8715 60.975 74.9196 69.8037 77.8876 72.3824" stroke="#1E1991" stroke-width="0.5" stroke-miterlimit="10"/>
<path d="M73.1197 67.6946C69.6171 64.0997 64.8379 54.7793 64.8379 54.7793" stroke="#1E1991" stroke-width="0.5" stroke-miterlimit="10"/>
<path d="M65.46 53.2935C66.9657 55.588 71.7231 60.8219 71.7231 60.8219" stroke="#1E1991" stroke-width="0.5" stroke-miterlimit="10"/>
<path d="M148.878 101.108C148.878 101.108 162.07 100.507 164.154 107.391C166.238 114.275 141.24 128.327 141.24 128.327L121.654 128.796L117.933 108.036C102.122 100.868 88.4719 92.1048 78.8916 80.4679C80.4956 76.5671 83.5508 73.2236 86.9334 70.0002C108.462 86.0952 121.719 87.8216 137.279 97.6337C131.42 111.478 142.167 116.056 148.878 101.108Z" fill="#FABF48"/>
<path d="M136.188 96.9893C134.834 99.4696 131.768 108.582 137.279 111.5C142.789 114.417 149.347 103.851 150.438 101.109" stroke="#1E1991" stroke-width="0.5" stroke-miterlimit="10"/>
<path d="M148.473 115.357C141.13 122.022 124.282 123.344 124.282 123.344L122.82 129.736L138.435 130.458L153.089 120.624L148.473 115.357Z" fill="#363CB3"/>
<path d="M117.31 116.504L118.608 127.267L112.007 127.649C112.007 127.649 113.982 143.799 120.431 141.854C126.879 139.909 128.854 131.015 128.854 131.015L128.429 125.082L125.853 125.661L124.588 118.198L117.31 116.504Z" fill="#FFC7E0" stroke="#262C97" stroke-width="0.5" stroke-miterlimit="10"/>
<path d="M118.609 127.267L119.111 131.255" stroke="#1E1991" stroke-width="0.5" stroke-miterlimit="10"/>
<path d="M117.933 116.515C119.854 120.012 125.571 123.224 128.845 120.339C132.118 117.455 130.416 107.85 126.837 102.933C123.258 98.0164 117.017 102.332 117.017 102.332V108.615L117.933 116.515Z" fill="#FFC7E0"/>
<path d="M122.755 120.766C124.861 121.694 127.12 121.858 128.833 120.339C132.106 117.444 130.404 107.85 126.825 102.933C123.246 98.0164 117.005 102.332 117.005 102.332V108.615L117.943 116.515" stroke="#1E1991" stroke-width="0.5" stroke-miterlimit="10"/>
<path d="M124.589 108.08L125.2 110.014" stroke="#1E1991" stroke-width="0.5" stroke-linecap="round" stroke-linejoin="round"/>
<path d="M116.755 92.9026C113.121 94.5197 109.313 99.5241 110.852 106.845C111.943 111.904 115.271 113.587 117.268 114.057" stroke="#1E1991" stroke-width="0.5" stroke-miterlimit="10" stroke-linecap="round"/>
<path d="M123.76 105.402C128.201 103.304 129.717 98.6716 127.251 95.5684C124.785 92.4653 124.589 98.4203 124.589 98.4203L123.76 105.402Z" stroke="#1E1991" stroke-width="0.5" stroke-miterlimit="10" stroke-linecap="round"/>
<path d="M118.15 106.244C121.839 107.566 128.505 104.364 127.818 99.5458C127.131 94.7272 120.573 87.7669 114.571 94.2683C108.57 100.77 111.527 111.467 114.266 112.844C115.032 113.227 115.907 113.333 116.742 113.144C117.578 112.954 118.322 112.482 118.849 111.806L118.15 106.244Z" fill="#575FCC"/>
<path d="M118.456 112.942C115.772 110.931 112.924 111.641 112.913 113.433C112.902 115.225 115.696 118.329 118.609 116.843L118.456 112.942Z" fill="#FFC7E0"/>
<path d="M118.456 112.942C115.772 110.931 112.924 111.641 112.913 113.433C112.902 115.225 115.696 118.329 118.609 116.843" stroke="#1E1991" stroke-width="0.5" stroke-miterlimit="10"/>
<path d="M116.994 114.231L112.913 113.434" stroke="#262C97" stroke-width="0.5" stroke-miterlimit="10"/>
<path d="M101.337 260.517C97.2666 259.14 95.0625 253.065 97.0593 252.869C98.085 252.748 101.718 260.321 101.718 260.321C100.627 256.507 100.856 251.273 104.348 250.945C107.349 250.672 107.392 256.234 102.231 260.277" stroke="#1E1991" stroke-width="0.5" stroke-miterlimit="10"/>
<path d="M128.855 270.056H90.8834C90.6979 264.527 94.5278 260.047 102.122 259.84L128.855 270.056Z" fill="#15154C"/>
<path d="M91.2649 266.865C90.9753 267.903 90.8464 268.979 90.883 270.056H128.855L122.406 267.586L120.791 267.477L91.2649 266.865Z" fill="#FABF48"/>
<path d="M167.133 257.25C165.965 261.129 160.455 262.855 160.204 260.889C160.073 259.872 166.936 256.868 166.936 256.868C163.466 257.665 158.545 259.446 158.207 256.015C157.891 253.065 163.575 252.89 166.936 256.354" stroke="#1E1991" stroke-width="0.5" stroke-miterlimit="10"/>
<path d="M157.224 270.056H173.69L184.067 249.295C183.99 241.188 176.745 238.183 169.631 235.091L166.161 254.103L165.266 261.817C159.516 261.959 155.98 265.718 157.224 270.056Z" fill="#15154C"/>
<path d="M184.111 249.273C184.119 247.703 183.792 246.15 183.151 244.717C180.608 250.115 173.832 264.385 172.076 266.199C170.319 268.013 161.622 267.696 157.116 267.379C156.967 268.271 157.019 269.186 157.269 270.056H173.734L184.111 249.273Z" fill="#FABF48"/>
<path d="M129.554 161.599C114.158 179.934 108.746 193.056 106.869 208.266C104.992 223.476 102.166 259.84 102.166 259.84C103.934 263.806 116.962 269.674 128.899 270.056C128.899 270.056 130.045 221.509 132.173 213.38C134.3 205.251 143.608 195.897 143.608 195.897V159.632L129.554 161.599Z" fill="#575FCC"/>
<path d="M127.503 198.017C128.766 202.986 130.366 207.864 132.293 212.615C134.737 204.682 143.521 195.886 143.521 195.886V161.598L141.949 166.177C138.611 174.94 124.229 184.686 127.503 198.017Z" fill="#363CB3"/>
<path d="M137.278 165.881C131.452 182.544 131.015 188.707 135.915 205.315C140.814 221.924 158.174 256.015 158.174 256.015C167.765 253.83 179.768 248.366 185.966 239.221C185.966 239.221 161.262 207.534 159.254 188.379C157.247 169.225 158.294 156.921 158.294 156.921L137.278 165.881Z" fill="#575FCC"/>
<path d="M113.328 127.147C113.328 127.147 101.205 124.852 98.7828 131.255C96.3604 137.658 102.056 152.857 124.588 165.357C147.121 177.857 153.406 157.545 153.406 157.545L155.795 125.049C155.795 125.049 141.239 123.694 135.063 123.377C128.888 123.06 126.967 125.366 126.967 125.366C123.345 141.985 112.957 145.012 113.328 127.147Z" fill="#FF5C9E"/>
<path d="M153.416 124.83C166.205 125.049 181.492 126.404 183.783 139.035C186.075 151.666 175.665 172.11 175.665 172.11C172.125 172.537 168.534 172.051 165.234 170.7C165.234 170.7 171.191 147.055 165.681 145.908C160.947 145.09 156.171 144.539 151.376 144.258L153.416 124.83Z" fill="#FF5C9E"/>
<path d="M153.089 137.964L151.845 139.887L151.387 144.258C151.387 144.258 147.688 147.077 149.401 147.219C158.229 142.029 163.826 132.588 166.096 125.792C163.345 125.374 160.572 125.112 157.792 125.005L153.089 137.964Z" fill="#363CB3"/>
<path d="M118.642 145.121C114.78 145.831 106.716 145.361 106.356 145.831C105.996 146.301 113.787 148.486 113.787 148.486C113.787 148.486 103.235 148.956 101.511 148.486C99.7874 148.016 100.42 154.321 107.087 155.359C113.754 156.397 114.365 156.397 114.365 156.397C114.365 156.397 108.386 156.922 107.393 156.922C106.4 156.922 109.106 158.276 114.463 157.807C117.326 157.636 120.14 156.986 122.789 155.884L124.251 152.289L118.642 145.121Z" fill="#FFC7E0" stroke="#262C97" stroke-width="0.5" stroke-miterlimit="10"/>
<path d="M110.6 151.032C107.284 151.145 103.972 150.744 100.779 149.841" stroke="#1E1991" stroke-width="0.5" stroke-miterlimit="10"/>
<path d="M102.122 152.803C104.512 153.688 112.008 153.895 112.008 153.895" stroke="#1E1991" stroke-width="0.5" stroke-miterlimit="10"/>
<path d="M156.832 101.928C162.44 103.381 168.376 107.129 163.281 122.754C158.185 138.379 153.668 145.034 144.829 150.355C137.911 154.551 122.777 156.288 122.777 156.288C120.06 153.852 118.074 148.771 117.758 144.881C117.758 144.881 138.184 138.587 139.995 134.522C141.807 130.458 148.419 110.593 153.089 108.08C157.759 105.567 156.832 101.928 156.832 101.928Z" fill="#FABF48"/>
<path d="M185.376 193.712L193.614 199.372C198.917 202.573 208.421 225.334 198.35 229.005C190.853 231.748 189.315 222.001 188.366 215.336C187.855 211.643 187.618 207.918 187.656 204.191L181.928 202.169L185.376 193.712Z" fill="#FFC7E0" stroke="#262C97" stroke-width="0.5" stroke-miterlimit="10"/>
<path d="M195.884 200.945C200.041 203.13 202.725 210.003 203.718 216.177C204.711 222.35 205.246 231.791 199.441 232.315C193.636 232.84 201.972 221.946 201.972 221.946L199.015 208.834L195.884 200.945Z" fill="#FABF48"/>
<path d="M194.728 199.7L198.35 216.297L196.79 213.183L189.294 214.505L189.839 217.936C189.839 217.936 188.934 216.45 188.039 214.713V214.888C188.192 220.908 191.934 235.047 199.431 232.316C209.098 228.786 200.151 204.496 194.728 199.7Z" fill="#FF5C9E"/>
<path d="M198.677 224.721C196.98 224.418 195.23 224.745 193.756 225.639" stroke="#1E1991" stroke-width="0.5" stroke-miterlimit="10"/>
<path d="M198.546 221.575C196.557 221.157 194.485 221.517 192.752 222.58" stroke="#1E1991" stroke-width="0.5" stroke-miterlimit="10"/>
<path d="M197.205 217.466C195.116 217.325 193.048 217.963 191.4 219.258" stroke="#1E1991" stroke-width="0.5" stroke-miterlimit="10"/>
<path d="M199.169 226.776C196.611 226.891 194.079 227.343 191.64 228.12C193.506 231.398 196.102 233.583 199.441 232.316C201.624 231.518 202.846 229.65 203.391 227.202C202.01 226.869 200.589 226.726 199.169 226.776Z" fill="#FABF48"/>
<path d="M153.21 144.345C153.21 144.345 160.902 145.045 163.674 145.514C166.773 146.039 168.246 145.613 168.039 153.218C167.644 159.117 166.717 164.969 165.267 170.7L161.939 175.552C169.904 178.928 177.663 184.883 185.268 192.892C185.955 196.607 185.519 200.005 183.195 202.89C183.195 202.89 137.214 196.214 135.751 179.868C134.289 163.521 153.21 144.345 153.21 144.345Z" fill="#363CB3"/>
<path d="M161.917 175.519L165.19 170.667C166.64 164.936 167.568 159.084 167.962 153.185C168.202 145.536 166.729 146.006 163.597 145.481C162.506 145.285 160.509 145.055 158.6 144.848C165.911 156.288 154.999 173.038 154.999 173.038C154.999 173.038 158.894 174.273 161.917 175.519Z" fill="#363CB3"/>
<path d="M150.678 172.241C154.536 172.888 158.305 173.988 161.906 175.519" stroke="#1E1991" stroke-width="0.5" stroke-miterlimit="10"/>
<path d="M183.161 202.857C183.161 202.857 144.218 195.209 139.461 191.067C134.704 186.926 134.311 176.972 136.886 169.433" stroke="#1E1991" stroke-width="0.5" stroke-miterlimit="10"/>
<path d="M26.1762 123.082L14.8176 156.013C14.6953 156.321 14.6445 156.653 14.6691 156.984C14.6937 157.315 14.793 157.636 14.9596 157.923C15.1261 158.21 15.3556 158.455 15.6307 158.641C15.9059 158.826 16.2195 158.947 16.5479 158.993L72.0288 168.677C72.7577 168.781 73.5002 168.632 74.1321 168.254C74.764 167.876 75.2471 167.292 75.5005 166.601L86.859 133.698C86.9824 133.389 87.034 133.056 87.0099 132.725C86.9858 132.393 86.8867 132.071 86.7201 131.784C86.5534 131.496 86.3235 131.25 86.0479 131.064C85.7722 130.879 85.4579 130.758 85.1287 130.712L29.6535 121.033C28.9273 120.928 28.1871 121.074 27.555 121.446C26.9228 121.819 26.4365 122.396 26.1762 123.082Z" fill="white"/>
<path d="M27.4934 124.298L16.1405 157.23C16.0171 157.537 15.9653 157.869 15.989 158.2C16.0128 158.531 16.1114 158.852 16.2776 159.139C16.4437 159.427 16.673 159.672 16.9481 159.858C17.2231 160.043 17.5367 160.164 17.8652 160.21L73.3516 169.866C74.0812 169.969 74.8241 169.819 75.4567 169.442C76.0893 169.064 76.5736 168.481 76.8289 167.79L88.1818 134.886C88.3052 134.578 88.3568 134.245 88.3328 133.914C88.3087 133.582 88.2096 133.26 88.0429 132.973C87.8762 132.685 87.6464 132.439 87.3707 132.253C87.095 132.067 86.7807 131.947 86.4515 131.9L30.9763 122.222C30.2458 122.118 29.5017 122.267 28.8679 122.645C28.2341 123.022 27.749 123.606 27.4934 124.298Z" stroke="#262C97" stroke-width="0.429308" stroke-miterlimit="10"/>
<path d="M28.8887 126.062L18.6912 155.611C18.5809 155.888 18.5351 156.187 18.5572 156.485C18.5792 156.782 18.6686 157.071 18.8186 157.329C18.9686 157.587 19.1752 157.808 19.4229 157.974C19.6706 158.141 19.9529 158.249 20.2484 158.29L44.8911 162.588C45.5565 162.685 46.2344 162.533 46.7948 162.161C47.3551 161.79 47.7585 161.224 47.9275 160.573L54.67 130.181C54.7355 129.929 54.7466 129.665 54.7027 129.407C54.6588 129.15 54.5608 128.905 54.4153 128.688C54.2697 128.471 54.0798 128.288 53.8582 128.15C53.6366 128.012 53.3882 127.922 53.1295 127.887L32.0479 124.198C31.3873 124.099 30.7126 124.23 30.1373 124.569C29.5619 124.909 29.121 125.436 28.8887 126.062Z" fill="#739EF1"/>
<path d="M44.8541 140.276L43.3006 149.065L45.6 149.386L53.7252 141.514L51.902 141.259L45.3057 147.827L45.1832 147.81L46.6229 140.523L44.8541 140.276ZM53.1119 150.602C55.2889 150.905 57.1908 149.974 57.9781 148.604C59.9153 145.234 54.0801 145.95 55.1479 144.092C55.4423 143.58 56.1856 143.131 57.2741 143.283C58.2946 143.425 58.6057 144.034 58.1607 144.809L59.8206 145.04C60.9159 143.134 59.6327 142.171 58.0408 141.948C55.9999 141.664 54.2204 142.612 53.5016 143.863C51.5712 147.221 57.4546 146.344 56.2772 148.393C55.9007 149.048 54.9876 149.384 53.9671 149.241C52.8242 149.082 52.3842 148.364 52.8839 147.495L51.224 147.263C50.2451 148.966 51.1526 150.328 53.1119 150.602Z" fill="#575FCC"/>
<path d="M76.282 136.528C76.1642 136.815 76.1137 137.126 76.1344 137.436C76.1552 137.746 76.2466 138.048 76.4018 138.317C76.5569 138.586 76.7717 138.817 77.0295 138.99C77.2874 139.164 77.5816 139.276 77.8895 139.318C78.5669 139.413 79.2562 139.273 79.8431 138.922C80.4299 138.57 80.879 138.029 81.1157 137.387C81.2347 137.1 81.2861 136.789 81.2659 136.478C81.2456 136.168 81.1543 135.866 80.999 135.596C80.8437 135.326 80.6284 135.096 80.37 134.923C80.1115 134.749 79.8166 134.638 79.5082 134.596C78.8307 134.501 78.1409 134.64 77.5538 134.992C76.9667 135.343 76.5179 135.885 76.282 136.528Z" fill="#FF58BE"/>
<path d="M74.7024 135.512L64.1309 133.664" stroke="#FF58BE" stroke-width="0.714441" stroke-linecap="round" stroke-linejoin="round"/>
<path d="M70.6997 159.06L70.4541 161.912" stroke="#FF58BE" stroke-width="0.714441" stroke-linecap="round" stroke-linejoin="round"/>
<path d="M68.1548 158.614L67.9092 161.466" stroke="#FF58BE" stroke-width="0.714441" stroke-linecap="round" stroke-linejoin="round"/>
<path d="M65.6043 158.173L65.3643 161.019" stroke="#FF58BE" stroke-width="0.714441" stroke-linecap="round" stroke-linejoin="round"/>
<path d="M11.4287 167.684C20.8783 166.434 22.7872 192.349 37.4277 191.171C52.0681 189.993 50.656 173.126 49.3499 165.792" stroke="#262C97" stroke-width="0.429308" stroke-miterlimit="10"/>
<path d="M0.28814 179.439C0.400284 179.7 0.585072 179.924 0.82056 180.083C1.05605 180.242 1.33233 180.33 1.61656 180.337C1.97173 180.352 2.32488 180.277 2.64356 180.12L2.77752 180.064C2.94707 179.981 3.11114 179.888 3.2687 179.785C4.80363 178.78 6.34414 176.67 7.1758 175.381C7.6 174.739 7.85675 174.304 7.85675 174.304L12.7741 172.942C13.142 173.709 13.5538 174.455 14.0076 175.174C14.1609 175.399 14.3779 175.572 14.6307 175.671C14.8835 175.771 15.1603 175.792 15.4254 175.733C16.1007 175.593 16.7984 174.918 17.0608 173.327C17.5408 170.38 18.3501 168.376 16.3017 165.998C15.4979 165.1 14.8058 165.027 12.763 165.641C11.0048 166.166 8.98422 166.863 7.4158 167.444C6.5355 167.743 5.67272 168.092 4.83153 168.488C3.82685 169.046 3.45289 169.738 2.32541 171.502C2.18587 171.731 2.024 171.976 1.85097 172.238C1.54546 172.897 1.19679 173.535 0.807222 174.147C0.399768 174.845 -0.443045 177.893 0.28814 179.439Z" fill="#575FCC"/>
<path d="M0.288269 179.439L0.377576 179.467C1.29604 179.657 2.23049 179.76 3.16836 179.774H3.26324C4.79817 178.769 6.33868 176.659 7.17034 175.37C4.53026 175.788 2.29763 173.455 2.31995 171.496C2.18041 171.725 2.01856 171.971 1.84553 172.233C1.54002 172.891 1.19133 173.529 0.801764 174.142C0.399891 174.845 -0.442917 177.893 0.288269 179.439Z" fill="#575FCC"/>
<path d="M12.6522 168.091C13.601 167.438 13.601 166.104 12.7973 165.641C11.0391 166.166 9.01855 166.863 7.45013 167.444C6.40638 171.2 11.3963 168.951 12.6522 168.091Z" fill="#FF5C9E"/>
<path d="M12.8076 172.936C13.1755 173.704 13.5873 174.449 14.0411 175.169C14.1944 175.393 14.4115 175.566 14.6642 175.666C14.917 175.765 15.1938 175.787 15.4589 175.727C16.458 174.187 14.8114 171.641 14.8114 171.641C14.8114 171.641 14.6551 172.227 12.8076 172.936Z" fill="#575FCC"/>
<path d="M211.006 2.14524L222.365 35.0765C222.487 35.3849 222.538 35.717 222.514 36.0479C222.489 36.3787 222.39 36.6997 222.223 36.9866C222.056 37.2736 221.827 37.519 221.552 37.7044C221.277 37.8898 220.963 38.0104 220.635 38.0571L165.154 47.702C164.424 47.8051 163.681 47.6552 163.049 47.2775C162.416 46.8998 161.932 46.3168 161.677 45.6257L150.324 12.6944C150.2 12.3857 150.149 12.053 150.173 11.7215C150.197 11.3899 150.296 11.0682 150.463 10.7805C150.629 10.4929 150.859 10.2469 151.135 10.0612C151.41 9.87541 151.725 9.75474 152.054 9.70827L207.529 0.0298269C208.264 -0.0707293 209.01 0.0846965 209.644 0.469958C210.277 0.85522 210.758 1.44681 211.006 2.14524Z" fill="white"/>
<path d="M209.84 3.10527L221.198 36.0366C221.32 36.3453 221.371 36.6777 221.346 37.0089C221.322 37.3401 221.223 37.6614 221.056 37.9487C220.89 38.236 220.66 38.4819 220.385 38.6679C220.11 38.8539 219.796 38.9752 219.468 39.0227L163.987 48.7067C163.258 48.8094 162.516 48.6594 161.884 48.2816C161.253 47.9038 160.769 47.3211 160.515 46.6304L149.157 13.6991C149.033 13.3904 148.982 13.0577 149.006 12.7262C149.03 12.3946 149.129 12.0729 149.296 11.7852C149.462 11.4976 149.692 11.2516 149.968 11.0659C150.243 10.8801 150.558 10.7594 150.887 10.713L206.368 1.02893C207.096 0.928303 207.837 1.07921 208.469 1.45673C209.1 1.83424 209.583 2.41578 209.84 3.10527V3.10527Z" stroke="#262C97" stroke-width="0.429308" stroke-miterlimit="10"/>
<path d="M208.746 5.07563L218.949 34.6245C219.058 34.9023 219.103 35.2012 219.08 35.4988C219.057 35.7964 218.967 36.0849 218.817 36.3427C218.666 36.6005 218.46 36.8209 218.212 36.9874C217.964 37.1538 217.682 37.2619 217.386 37.3036L192.749 41.607C192.084 41.7007 191.407 41.5474 190.846 41.1762C190.286 40.805 189.881 40.2415 189.707 39.5921L182.965 9.18925C182.9 8.93612 182.89 8.67221 182.934 8.41482C182.979 8.15743 183.078 7.91239 183.224 7.69577C183.37 7.47915 183.56 7.29584 183.782 7.15788C184.003 7.01991 184.252 6.9304 184.511 6.89522L205.62 3.2058C206.276 3.11389 206.944 3.24925 207.513 3.5894C208.082 3.92954 208.517 4.454 208.746 5.07563Z" fill="#68D1A2"/>
<path d="M176.072 20.8698L182.448 29.3894L184.735 28.9886L184.895 19.3236L183.081 19.6414L183.107 27.6494L182.985 27.6708L177.831 20.5615L176.072 20.8698ZM192.353 27.8325C194.518 27.4531 195.357 26.0256 194.839 24.5333C193.563 20.8607 189.106 23.2801 188.403 21.2557C188.209 20.6976 188.462 20.0614 189.544 19.8716C190.559 19.6938 191.367 20.158 191.66 21.0016L193.31 20.7122C192.589 18.6359 190.623 18.1407 189.039 18.4182C187.01 18.7739 186.292 20.18 186.766 21.5426C188.037 25.2022 192.394 22.6212 193.17 24.8533C193.418 25.567 192.917 26.1504 191.902 26.3283C190.765 26.5275 189.751 26.0032 189.422 25.0559L187.771 25.3452C188.415 27.2009 190.404 28.174 192.353 27.8325Z" fill="#575FCC"/>
<path d="M159.733 16.5512C159.852 16.8387 159.904 17.1498 159.883 17.4603C159.863 17.7709 159.772 18.0726 159.617 18.3423C159.461 18.612 159.246 18.8424 158.988 19.0157C158.729 19.189 158.434 19.3007 158.126 19.342C157.449 19.4379 156.76 19.2991 156.173 18.9487C155.586 18.5984 155.136 18.0576 154.9 17.4163C154.781 17.1288 154.729 16.8177 154.749 16.5072C154.77 16.1966 154.861 15.8949 155.016 15.6252C155.172 15.3555 155.387 15.1251 155.645 14.9518C155.904 14.7785 156.199 14.6669 156.507 14.6255C157.184 14.5296 157.873 14.6684 158.46 15.0188C159.047 15.3691 159.496 15.9099 159.733 16.5512Z" fill="#575FCC"/>
<path d="M161.319 15.5355L171.891 13.6936" stroke="#575FCC" stroke-width="0.714441" stroke-linecap="round" stroke-linejoin="round"/>
<path d="M165.321 39.0896L165.567 41.9362" stroke="#575FCC" stroke-width="0.714441" stroke-linecap="round" stroke-linejoin="round"/>
<path d="M167.866 38.6431L168.112 41.4952" stroke="#575FCC" stroke-width="0.714441" stroke-linecap="round" stroke-linejoin="round"/>
<path d="M170.411 38.1965L170.657 41.0487" stroke="#575FCC" stroke-width="0.714441" stroke-linecap="round" stroke-linejoin="round"/>
<path d="M224.586 47.702C215.136 46.4517 213.227 72.3725 198.587 71.1892C183.946 70.0059 185.565 51.9886 186.894 44.6768" stroke="#262C97" stroke-width="0.429308" stroke-miterlimit="10"/>
<path d="M238.741 54.0315C238.752 54.3155 238.682 54.5969 238.539 54.8422C238.395 55.0876 238.184 55.2867 237.931 55.4157C237.614 55.5791 237.261 55.6616 236.904 55.6557H236.748C236.561 55.656 236.375 55.6429 236.19 55.6166C234.37 55.3655 232.076 54.1208 230.753 53.3226C230.1 52.9208 229.676 52.6361 229.676 52.6361L224.653 53.5124C224.65 54.365 224.598 55.2167 224.496 56.0632C224.457 56.3327 224.337 56.584 224.152 56.7834C223.966 56.9829 223.724 57.121 223.458 57.1795C222.788 57.3469 221.867 57.0344 220.952 55.7059C219.278 53.2501 217.665 51.7988 218.496 48.7625C218.837 47.6071 219.434 47.2443 221.538 46.9206C223.358 46.6471 225.479 46.4126 227.12 46.2619C228.046 46.1542 228.978 46.0983 229.911 46.0945C231.06 46.1838 231.691 46.6526 233.466 47.769C233.689 47.9141 233.94 48.0704 234.214 48.2322C234.771 48.697 235.358 49.124 235.972 49.5104C236.692 49.9346 238.741 52.3235 238.741 54.0315Z" fill="#575FCC"/>
<path d="M238.741 54.0314L238.679 54.0984C237.924 54.6668 237.117 55.1621 236.268 55.5775L236.184 55.6222C234.365 55.371 232.071 54.1263 230.748 53.3282C233.31 52.5746 234.331 49.5104 233.472 47.7466C233.695 47.8917 233.946 48.048 234.22 48.2099C234.777 48.6746 235.364 49.1016 235.978 49.488C236.692 49.9346 238.741 52.3235 238.741 54.0314Z" fill="#575FCC"/>
<path d="M222.727 49.0751C221.611 48.8909 221.019 47.6853 221.544 46.9206C223.364 46.6471 225.485 46.4127 227.126 46.262C229.704 49.209 224.229 49.3151 222.727 49.0751Z" fill="#739EF1"/>
<path d="M224.659 53.518C224.656 54.3705 224.604 55.2223 224.502 56.0687C224.463 56.3383 224.343 56.5895 224.158 56.789C223.972 56.9884 223.73 57.1266 223.464 57.1851C221.901 56.225 222.303 53.2166 222.303 53.2166C222.303 53.2166 222.688 53.6687 224.659 53.518Z" fill="#575FCC"/>
<path d="M66.241 97.6407C66.2434 95.5495 65.6293 93.504 64.4756 91.7604C63.3219 90.0168 61.6798 88.6525 59.7549 87.8384C57.8301 87.0243 55.708 86.7966 53.6545 87.1837C51.6009 87.5708 49.7071 88.5556 48.2101 90.0148C46.7132 91.4739 45.6796 93.3426 45.2389 95.3868C44.7982 97.431 44.9698 99.5598 45.7324 101.507C46.495 103.454 47.8145 105.133 49.5259 106.333C51.2373 107.533 53.2644 108.201 55.3534 108.253L61.3471 113.898L60.3023 107.169C62.0829 106.294 63.5832 104.938 64.6329 103.254C65.6825 101.57 66.2396 99.6256 66.241 97.6407Z" fill="#FF5C9E"/>
<path d="M59.5958 94.2605C59.2534 94.0305 58.862 93.8837 58.4529 93.8318C58.0437 93.7799 57.6281 93.8244 57.2392 93.9618C56.8602 94.1111 56.5148 94.3348 56.2234 94.6197C55.932 94.9045 55.7005 95.2448 55.5424 95.6205C55.3095 95.2858 55.0113 95.0017 54.6656 94.7856C54.32 94.5694 53.9342 94.4255 53.5314 94.3627C53.1166 94.3014 52.693 94.3408 52.2966 94.4776C51.9001 94.6145 51.5423 94.8447 51.2534 95.1489C50.8838 95.6134 50.6598 96.177 50.6095 96.7687C50.5592 97.3604 50.6848 97.9537 50.9706 98.4741C51.5663 99.5082 52.4977 100.307 53.61 100.738C54.4024 101.146 55.2671 101.395 56.1551 101.469C57.0128 101.206 57.8126 100.782 58.5118 100.219C59.5057 99.5597 60.2455 98.581 60.6092 97.4443C60.7722 96.8727 60.7631 96.2657 60.5828 95.6993C60.4025 95.1329 60.0592 94.6324 59.5958 94.2605Z" fill="white"/>
</svg>
