<svg width="169" height="253" viewBox="0 0 169 253" fill="none" xmlns="http://www.w3.org/2000/svg">
<path d="M97.168 110.581C97.5358 107.036 101.244 81.546 106.801 76.8033C112.359 72.0607 113.949 74.8064 113.949 74.8064L115.232 76.8033L101.433 112.159L97.168 110.581Z" fill="#575FCC"/>
<path d="M130.135 179.874C124.623 181.926 118.669 182.477 112.876 181.471L111.763 181.301C111.415 185.92 111.389 190.557 111.683 195.18C113.513 216.327 114.228 232.572 112.827 233.83C112.498 234.119 112.986 237.105 111.882 237.734C116.266 237.544 120.641 237.344 125.035 237.294C124.596 236.949 124.25 236.498 124.029 235.984C123.809 235.469 123.72 234.907 123.772 234.349C124.08 232.622 131.069 216.986 131.656 199.793C132.163 184.606 129.787 180.622 129.787 180.622L130.135 179.874Z" fill="#DADBE7"/>
<path d="M124.646 231.464C121.266 234.988 117.687 234.399 114.029 231.464L113.422 229.127L103.182 233.94L101.761 234.259C93.5688 235.527 89.9202 238.413 90.119 243.465H128.066C128.066 240.729 128.623 234.459 124.646 231.464Z" fill="#DADBE7"/>
<path d="M133.515 183.538C128.004 185.591 122.049 186.142 116.257 185.135L115.153 184.966C114.797 189.584 114.767 194.222 115.064 198.844C116.903 219.991 119.587 238.692 118.185 239.95C117.857 240.25 116.376 240.769 115.263 241.398C119.647 241.208 124.031 241.009 128.415 240.959C127.976 240.613 127.63 240.163 127.41 239.648C127.189 239.133 127.101 238.571 127.153 238.013C127.461 236.286 134.45 220.65 135.036 203.457C135.553 188.271 133.167 184.287 133.167 184.287L133.515 183.538Z" fill="#FFC7E0" stroke="#262C97" stroke-width="0.5" stroke-miterlimit="10"/>
<path d="M131.289 126.017C136.956 134.254 137.383 136.151 137.592 149.66C137.801 163.169 140.415 185.844 140.415 185.844C132.651 189.838 120.144 191.565 111.316 187.841L110.899 183.408L104.377 182.35C102.07 165.915 103.134 147.094 105.64 127.255L131.289 126.017Z" fill="#575FCC"/>
<path d="M108.692 146.076C111.973 145.078 118.077 143.6 122.014 140.694C126.279 137.539 128.197 131.529 129.032 126.127L125.056 126.327L123.515 130.111L104.188 140.964C104.188 141.144 104.188 141.313 104.139 141.493L104.954 146.076L109.776 183.248L110.939 183.438C111.396 183.258 108.095 146.246 108.692 146.076Z" fill="#363CB3"/>
<path d="M110.232 58.5618L115.481 72.62L122.917 79.2297L106.871 88.0161L108.581 78.3111L104.982 64.3029L110.232 58.5618Z" fill="#FFC7E0" stroke="#262C97" stroke-width="0.5" stroke-miterlimit="10"/>
<path d="M110.25 59.1909C110.827 62.8252 108.48 68.3966 104.474 68.1769C100.468 67.9573 96.3219 59.9697 96.1628 54.3584C96.0038 48.7471 102.983 48.3677 102.983 48.3677L106.492 52.9606L110.25 59.1909Z" fill="#FFC7E0"/>
<path d="M109.119 65.0217C108.125 66.8888 106.494 68.2667 104.456 68.1369C100.48 67.8773 96.3043 59.9296 96.1453 54.3183C95.9862 48.707 102.965 48.3276 102.965 48.3276L106.475 52.9205L110.233 59.2108" stroke="#1E1991" stroke-width="0.5" stroke-miterlimit="10"/>
<path d="M100.658 56.7944L101.304 58.5617" stroke="#1E1991" stroke-width="0.5" stroke-linecap="round" stroke-linejoin="round"/>
<path d="M101.611 61.5271C101.929 61.9364 102.694 61.8665 103.321 61.3773C103.947 60.8881 104.196 60.1492 103.877 59.7399C103.559 59.3305 102.784 59.3904 102.158 59.8896C101.531 60.3888 101.303 61.1177 101.611 61.5271Z" fill="#FF5C9E"/>
<path d="M97.834 41.3186C101.383 40.45 106.97 41.9476 109.963 48.158C112.031 52.4414 110.539 55.5665 109.356 57.0342" stroke="#1E1991" stroke-width="0.5" stroke-miterlimit="10" stroke-linecap="round"/>
<path d="M99.7526 54.3781C95.3485 55.3766 91.6402 52.8505 91.68 49.1662C91.7198 45.4819 95.2093 49.7453 95.2093 49.7453L99.7526 54.3781Z" stroke="#1E1991" stroke-width="0.5" stroke-miterlimit="10" stroke-linecap="round"/>
<path d="M104.287 51.8323C102.298 54.8775 95.6972 56.3053 93.4901 52.4014C91.2831 48.4974 92.1381 39.731 100.161 41.069C108.184 42.4069 112.031 51.8922 110.818 54.4482C110.477 55.1613 109.9 55.7334 109.186 56.0666C108.471 56.3999 107.664 56.4737 106.901 56.2754L104.287 51.8323Z" fill="#575FCC"/>
<path d="M107.855 56.8843C108.671 53.889 111.136 52.8106 112.16 54.1086C113.184 55.4066 112.886 59.2407 109.933 59.8098L107.855 56.8843Z" fill="#FFC7E0"/>
<path d="M107.855 56.8843C108.671 53.889 111.136 52.8106 112.16 54.1086C113.184 55.4066 112.886 59.2407 109.933 59.8098" stroke="#1E1991" stroke-width="0.5" stroke-miterlimit="10"/>
<path d="M109.635 56.9939L112.15 54.0984" stroke="#262C97" stroke-width="0.5" stroke-miterlimit="10"/>
<path d="M108.262 79.9085C108.262 79.9085 117.478 75.2956 117.13 74.1274C117.13 74.1274 124.159 78.3209 126.933 83.2732C135.025 97.7308 134.816 115.883 135.025 120.955C135.234 126.027 134.608 128.942 130.611 131.508C126.615 134.074 108.054 136.411 101.631 127.075C96.2629 119.227 103.292 84.691 108.262 79.9085Z" fill="#FF5C9E"/>
<path d="M128.476 88.0161C130.473 94.071 131.566 100.39 131.717 106.767L112.311 104.77" stroke="#1E1991" stroke-width="0.5" stroke-miterlimit="10"/>
<g style="mix-blend-mode:multiply">
<path d="M123.474 130.111L117.021 133.735C120.511 133.899 124.006 133.563 127.401 132.736C130.254 124.809 129.588 115.124 129.588 115.124L123.474 130.111Z" fill="#575FCC"/>
</g>
<path d="M104.546 183.817C102.557 195.409 83.1613 229.676 82.5052 230.994C81.849 232.312 81.9783 238.722 81.9783 238.722L70.2969 239.95C70.2969 239.95 76.2022 211.624 83.8175 190.537C91.4327 169.449 104.546 183.817 104.546 183.817Z" fill="#DADBE7"/>
<path d="M93.2526 240.589C90.2701 241.398 87.8444 240.12 83.8976 238.862C81.1537 237.993 77.2168 235.048 77.2168 235.048C77.8431 233.75 79.4139 231.803 81.1934 232.652C85.2794 235.268 88.1526 237.374 92.845 237.973L93.2526 240.589Z" fill="#DADBE7"/>
<path d="M100.836 244.374L67.8398 244.474L68.3469 240.709L91.5704 241.708L92.8827 237.964C98.2413 238.932 102.049 240.799 100.836 244.374Z" fill="#DADBE7"/>
<path d="M98.9576 185.216C96.9693 196.818 77.5732 231.074 76.9171 232.392C76.261 233.71 76.4001 240.12 76.4001 240.12L64.7188 241.349C64.7188 241.349 70.6241 213.022 78.2294 191.935C85.8347 170.848 98.9576 185.216 98.9576 185.216Z" fill="#FFC7E0" stroke="#262C97" stroke-width="0.5" stroke-miterlimit="10"/>
<path d="M65.7334 236.456C70.227 238.522 73.7761 238.742 75.7943 235.976C79.5506 237.374 83.3969 238.515 87.3066 239.391C93.7587 240.549 95.757 244.673 94.7131 245.152C84.9505 244.803 77.2954 246.081 62.7012 245.102C62.8901 243.185 61.9556 239.621 65.7334 236.456Z" fill="#FF5C9E"/>
<path d="M87.6745 241.987C84.692 242.806 82.2563 241.518 78.3194 240.27C75.5755 239.401 71.6387 236.446 71.6387 236.446C72.2551 235.148 73.8358 233.201 75.6153 234.049C79.7113 236.665 82.6341 238.772 87.2768 239.371L87.6745 241.987Z" fill="#FF5C9E"/>
<path d="M95.2499 245.771L62.2637 245.871L62.7707 242.107L85.9943 243.106L87.3066 239.361C92.6651 240.33 96.4727 242.207 95.2499 245.771Z" fill="#FABF48"/>
<path d="M83.3483 241.907C83.3101 240.615 83.6942 239.345 84.4419 238.293" stroke="#1E1991" stroke-width="0.5" stroke-miterlimit="10"/>
<path d="M79.9004 241.308C79.9302 240.519 80.1223 239.744 80.4644 239.033C80.8066 238.322 81.2915 237.689 81.8887 237.175" stroke="#1E1991" stroke-width="0.5" stroke-miterlimit="10"/>
<path d="M76.5195 239.761C76.8854 238.128 77.8603 236.699 79.2435 235.767" stroke="#1E1991" stroke-width="0.5" stroke-miterlimit="10"/>
<path d="M69.2717 78.2712L71.8068 89.8632C74.1025 92.4136 76.5247 94.8462 79.0642 97.1519C82.3847 100.057 66.3787 107.346 66.1401 106.907C65.9015 106.467 59.5488 90.4822 59.5488 90.4822L63.1477 73.5085L69.8881 72.8296L69.2717 78.2712Z" fill="#FFC7E0" stroke="#262C97" stroke-width="0.5" stroke-miterlimit="10"/>
<path d="M68.9435 93.1782C62.5112 98.1006 69.7487 117.361 74.2523 131.199C78.7558 145.038 51.7246 203.008 51.7246 203.008C51.7246 203.008 70.3651 206.662 96.3425 193.253C109.873 186.264 109.734 183.268 109.734 183.268C109.734 183.268 104.604 134.005 100.011 124.639C95.4179 115.274 76.4494 94.7358 76.4494 94.7358C76.4494 94.7358 72.6517 90.3426 68.9435 93.1782Z" fill="#FABF48"/>
<path d="M76.9473 142.522C86.2427 147.843 104.913 146.076 104.913 146.076L104.018 141.084L76.9473 142.522Z" fill="#363CB3"/>
<path d="M52.4805 198.515C64.5695 201.73 95.3089 192.454 109.734 179.864" stroke="#1E1991" stroke-width="0.5" stroke-miterlimit="10"/>
<path d="M99.0178 109.503C97.0295 114.575 75.4165 84.4117 69.5311 89.8932C64.5006 94.5759 73.2492 109.583 80.7352 116.043C91.671 125.428 103.849 131.399 107.578 124.619C111.375 117.63 110.938 86.3886 113.96 84.0223C114.848 83.1959 115.913 82.586 117.073 82.2397C118.234 81.8934 119.458 81.8201 120.651 82.0254C121.986 82.1639 123.28 82.5678 124.458 83.2135C124.777 82.4447 124.021 81.4363 122.4 80.2182C122.4 80.2182 125.771 82.3549 127.013 83.2135C128.256 84.0722 127.739 79.2197 122.043 76.484C116.346 73.7482 112.041 75.815 109.536 79.5492C105.599 85.4102 100.082 106.867 99.0178 109.503Z" fill="#FFC7E0" stroke="#262C97" stroke-width="0.5" stroke-miterlimit="10"/>
<path d="M118.514 79.6092C119.831 79.4374 121.169 79.6597 122.361 80.2482" stroke="#1E1991" stroke-width="0.5" stroke-linecap="round" stroke-linejoin="round"/>
<path d="M69.8285 64.8821C72.9899 66.4197 76.0718 72.3305 76.38 76.6239C76.7478 81.5562 69.9577 82.1752 66.1302 76.3143C64.5396 73.8781 64.6986 69.3252 66.1302 67.3283C67.016 66.0781 68.3351 65.2056 69.8285 64.8821Z" fill="#FFC7E0"/>
<path d="M66.1302 76.3144C64.5396 73.8782 64.6986 69.3252 66.1302 67.3283C67.0219 66.0836 68.3444 65.2183 69.8384 64.9021C72.9999 66.4397 75.4554 71.4819 76.39 76.6439C77.066 80.3382 71.7472 81.7959 67.7805 78.2614" stroke="#1E1991" stroke-width="0.5" stroke-miterlimit="10"/>
<path d="M73.2402 73.768C73.2402 74.2872 72.6636 74.7665 71.8682 74.8164C71.0729 74.8663 70.4068 74.4969 70.3671 73.9777C70.3273 73.4585 70.9437 72.9792 71.739 72.9792C72.5343 72.9792 73.2104 73.2488 73.2402 73.768Z" fill="#FF5C9E"/>
<path d="M70.625 69.4648L71.4899 71.1223" stroke="#1E1991" stroke-width="0.5" stroke-linecap="round" stroke-linejoin="round"/>
<path d="M65.1866 72.1506C67.493 70.9525 66.9462 68.4065 67.672 67.8773C68.3977 67.3481 75.0983 67.5378 74.2334 62.5455C73.5077 58.372 68.7854 58.5517 66.7375 61.0279C66.7375 61.0279 61.1801 55.9558 53.8134 63.1346C46.4466 70.3135 52.3023 77.8318 50.8309 82.9639C49.3595 88.0959 34.0395 94.8255 36.7933 110.771C39.5472 126.716 59.0824 128.623 66.1608 119.317C69.531 114.874 70.3065 109.013 70.5948 105.09C71.8176 88.4553 63.9439 80.328 65.1866 72.1506Z" fill="#15154C"/>
<path d="M67.6016 60.6285C68.9636 59.5302 72.811 58.1624 74.5607 60.9081C75.9525 63.1347 74.7695 65.9902 71.5782 66.15" stroke="#1E1991" stroke-width="0.5" stroke-miterlimit="10" stroke-linecap="round"/>
<path d="M34.5469 108.923C34.9346 98.6494 41.506 92.5489 49.1213 85.6496C56.7365 78.7503 55.3546 77.4324 55.3546 77.4324" stroke="#1E1991" stroke-width="0.5" stroke-miterlimit="10" stroke-linecap="round"/>
<path d="M67.3428 86.2786C74.3019 99.2584 73.9241 119.876 59.0117 123.9" stroke="#1E1991" stroke-width="0.5" stroke-miterlimit="10" stroke-linecap="round"/>
<path d="M66.7373 75.8147C66.7373 75.8147 63.4068 77.8116 60.7723 75.8147C58.1378 73.8178 60.5437 71.771 62.015 71.4815C63.2397 71.3244 64.4796 71.6189 65.5045 72.3102L66.7373 75.8147Z" fill="#FFC7E0"/>
<path d="M66.7362 75.8148C66.7362 75.8148 63.2069 78.0314 60.7712 75.8148C60.3785 75.5229 60.0841 75.1174 59.9274 74.6527C59.7707 74.188 59.7592 73.6863 59.8944 73.2148C60.0296 72.7434 60.3051 72.3247 60.6839 72.0149C61.0627 71.7051 61.5268 71.519 62.0139 71.4816C63.2342 71.3918 64.4524 71.6812 65.5034 72.3103" stroke="#1E1991" stroke-width="0.5" stroke-miterlimit="10"/>
<path d="M60.2051 72.48L64.4998 73.2588" stroke="#262C97" stroke-width="0.5" stroke-miterlimit="10"/>
<path d="M114.337 105.259C116.067 105.559 124.139 106.188 129.756 106.807C129.756 106.807 130.75 131.668 121.753 136.99C108.581 144.808 95.2887 144.109 85.5757 143.839C75.8628 143.57 70.9119 139.846 71.1803 139.496C71.4487 139.147 75.9125 140.495 76.9663 140.195C78.0201 139.896 72.9897 136.491 72.2639 131.988C71.5382 127.485 72.5423 125.997 72.5423 125.997C72.5423 125.997 75.2166 130.191 78.9745 131.309C81.281 131.988 80.7342 131.479 80.7342 131.479C80.7342 131.479 76.8172 125.558 77.871 124.929C78.9248 124.3 81.8476 127.924 86.4108 131.479C90.1588 134.404 112.388 130.34 114.138 126.486C115.888 122.632 114.337 105.259 114.337 105.259Z" fill="#FFC7E0"/>
<path d="M72.0449 128.034C73.7052 131.718 79.9386 135.083 79.9386 135.083" stroke="#1E1991" stroke-width="0.5" stroke-linecap="round" stroke-linejoin="round"/>
<path d="M72.2637 131.988C73.9338 134.409 76.1342 136.414 78.6959 137.849" stroke="#1E1991" stroke-width="0.5" stroke-linecap="round" stroke-linejoin="round"/>
<path d="M129.728 106.577C129.728 106.577 130.722 131.668 121.775 136.99C108.602 144.808 95.3101 144.109 85.5972 143.839C75.8843 143.57 70.9333 139.846 71.2018 139.496C71.4702 139.147 75.934 140.495 76.9878 140.195C78.0416 139.895 73.0111 136.491 72.2854 131.988C71.5597 127.485 72.5638 125.997 72.5638 125.997C72.5638 125.997 75.2381 130.191 78.996 131.309C81.3024 131.988 80.7556 131.478 80.7556 131.478C80.7556 131.478 76.8387 125.558 77.8925 124.929C78.9463 124.3 81.8691 127.924 86.4323 131.478C90.1803 134.404 112.41 130.34 114.159 126.486C115.909 122.632 114.328 105.02 114.328 105.02" stroke="#1E1991" stroke-width="0.5" stroke-miterlimit="10"/>
<path d="M127.451 238.053C127.62 237.055 130.085 231.184 132.173 223.466C126.93 222.987 121.742 222.028 116.674 220.6C117.439 231.424 118.424 239.112 117.549 239.9L117.121 240.22C118.772 240.45 128.415 240.909 128.415 240.909C128.032 240.55 127.743 240.101 127.575 239.603C127.407 239.105 127.364 238.572 127.451 238.053Z" fill="#FABF48"/>
<path d="M117.082 221.409L118.225 225.173L120.661 222.388L122.212 226.152L124.25 223.286L125.831 226.431L127.839 223.915L129.589 227.2L131.497 224.305" stroke="#1E1991" stroke-width="0.5" stroke-miterlimit="10"/>
<path d="M128.364 235.337C124.984 238.862 121.137 238.043 117.429 235.108L116.434 233.111L106.602 237.554L105.181 237.873C96.9787 239.142 93.3401 242.027 93.539 247.079H131.476C131.496 244.343 132.341 238.333 128.364 235.337Z" fill="#15154C"/>
<path d="M131.347 241.677C130.341 242.286 129.6 243.252 129.269 244.383C129.269 244.383 102.427 245.382 93.8374 244.563C93.6099 245.391 93.5159 246.251 93.559 247.109H131.496C131.576 245.297 131.526 243.482 131.347 241.677Z" fill="#FABF48"/>
<path d="M132.481 54.8477C132.481 54.8477 130.732 49.5859 129.091 53.38C128.097 55.7064 129.827 61.1879 129.827 61.1879C129.827 61.1879 136.707 57.6634 136.229 54.3086C135.941 52.3017 132.481 54.8477 132.481 54.8477Z" fill="#FF5C9E"/>
<path d="M48.592 47.6952C48.592 47.6952 48.2043 42.1638 51.1569 45.0394C52.9763 46.8066 53.4535 52.5477 53.4535 52.5477C53.4535 52.5477 45.7388 51.8788 44.9236 48.6438C44.4165 46.6768 48.592 47.6952 48.592 47.6952Z" fill="#FF5C9E"/>
<path d="M11.3724 40.678C11.3724 40.678 10.1843 23.7276 19.2323 32.5393C24.8074 37.9549 26.2697 55.5478 26.2697 55.5478C26.2697 55.5478 2.62897 53.4979 0.130854 43.5847C-1.42285 37.5572 11.3724 40.678 11.3724 40.678Z" fill="#FF5C9E"/>
<path d="M146.897 10.678C146.897 10.678 148.085 -6.27243 139.037 2.53932C133.462 7.95488 132 25.5478 132 25.5478C132 25.5478 155.641 23.4979 158.139 13.5847C159.692 7.55718 146.897 10.678 146.897 10.678Z" fill="#FF5C9E"/>
</svg>
